<svg xmlns="http://www.w3.org/2000/svg" xmlns:xlink="http://www.w3.org/1999/xlink" width="200" zoomAndPan="magnify" viewBox="0 0 150 37.5" height="50" preserveAspectRatio="xMidYMid meet" version="1.0"><defs><g/></defs><g fill="#ffffff" fill-opacity="1"><g transform="translate(19.449475, 25.166035)"><g><path d="M 6.96875 -9.9375 L 7.34375 -10.765625 C 7.425781 -10.984375 7.460938 -11.15625 7.453125 -11.28125 C 7.441406 -11.414062 7.4375 -11.519531 7.4375 -11.59375 C 7.4375 -11.675781 7.425781 -11.773438 7.40625 -11.890625 C 7.394531 -12.015625 7.34375 -12.132812 7.25 -12.25 C 7.164062 -12.375 7.082031 -12.457031 7 -12.5 C 6.914062 -12.539062 6.753906 -12.609375 6.515625 -12.703125 L 5.984375 -12.734375 C 5.503906 -12.828125 5.09375 -12.785156 4.75 -12.609375 C 4.75 -12.253906 4.660156 -11.519531 4.484375 -10.40625 L 4.34375 -8.734375 L 4.234375 -7.875 C 4.335938 -7.875 4.625 -7.960938 5.09375 -8.140625 L 5.421875 -8.421875 C 5.492188 -8.441406 5.695312 -8.617188 6.03125 -8.953125 C 6.101562 -8.984375 6.191406 -9.066406 6.296875 -9.203125 L 6.53125 -9.484375 C 6.582031 -9.472656 6.671875 -9.550781 6.796875 -9.71875 Z M 4.171875 -3.53125 L 4.234375 -2.953125 C 4.296875 -2.804688 4.289062 -2.597656 4.21875 -2.328125 C 4.15625 -2.054688 4.148438 -1.847656 4.203125 -1.703125 C 4.203125 -1.429688 4.210938 -1.269531 4.234375 -1.21875 C 4.367188 -1.21875 4.582031 -1.28125 4.875 -1.40625 C 5.175781 -1.539062 5.367188 -1.613281 5.453125 -1.625 C 5.535156 -1.644531 5.640625 -1.710938 5.765625 -1.828125 C 6.160156 -2.035156 6.578125 -2.273438 7.015625 -2.546875 L 7.5625 -3.046875 C 8.03125 -3.609375 8.351562 -4.019531 8.53125 -4.28125 L 8.671875 -4.703125 C 8.878906 -5.148438 8.675781 -5.578125 8.0625 -5.984375 C 7.9375 -6.171875 7.675781 -6.296875 7.28125 -6.359375 L 7.25 -6.359375 C 6.6875 -6.523438 6.359375 -6.59375 6.265625 -6.5625 L 5.21875 -6.3125 C 5.019531 -6.21875 4.84375 -6.171875 4.6875 -6.171875 C 4.539062 -6.171875 4.378906 -6.242188 4.203125 -6.390625 L 4.234375 -5.71875 C 4.117188 -5.414062 4.082031 -5.117188 4.125 -4.828125 C 4.195312 -4.535156 4.210938 -4.101562 4.171875 -3.53125 Z M 5.234375 0.75 L 5.015625 0.75 C 4.859375 0.78125 4.546875 0.753906 4.078125 0.671875 C 3.265625 0.546875 2.609375 0.289062 2.109375 -0.09375 C 1.960938 -0.21875 1.796875 -0.390625 1.609375 -0.609375 C 1.429688 -0.828125 1.34375 -0.972656 1.34375 -1.046875 C 1.34375 -1.128906 1.347656 -1.234375 1.359375 -1.359375 C 1.367188 -1.492188 1.359375 -1.625 1.328125 -1.75 L 1.328125 -1.9375 C 1.273438 -2.039062 1.28125 -2.210938 1.34375 -2.453125 C 1.40625 -2.703125 1.421875 -2.910156 1.390625 -3.078125 C 1.359375 -3.285156 1.335938 -3.507812 1.328125 -3.75 C 1.273438 -3.8125 1.296875 -3.988281 1.390625 -4.28125 C 1.515625 -6.4375 1.578125 -7.617188 1.578125 -7.828125 L 1.703125 -8.546875 C 1.617188 -9.023438 1.632812 -9.441406 1.75 -9.796875 L 1.75 -10.328125 C 1.738281 -10.546875 1.800781 -11.191406 1.9375 -12.265625 C 1.875 -12.460938 1.660156 -12.710938 1.296875 -13.015625 C 1.210938 -13.097656 1.128906 -13.222656 1.046875 -13.390625 C 0.972656 -13.554688 1.007812 -13.820312 1.15625 -14.1875 C 1.25 -14.320312 1.53125 -14.53125 2 -14.8125 C 2.03125 -14.914062 2.460938 -15.101562 3.296875 -15.375 L 3.75 -15.5625 C 3.96875 -15.644531 4.414062 -15.675781 5.09375 -15.65625 C 5.457031 -15.613281 5.753906 -15.539062 5.984375 -15.4375 C 6.796875 -15.039062 7.546875 -14.585938 8.234375 -14.078125 C 8.441406 -13.972656 8.585938 -13.84375 8.671875 -13.6875 C 8.960938 -13.5 9.226562 -13.191406 9.46875 -12.765625 C 9.71875 -12.335938 9.859375 -12.066406 9.890625 -11.953125 C 9.972656 -11.441406 9.894531 -10.828125 9.65625 -10.109375 C 9.539062 -9.742188 9.007812 -8.976562 8.0625 -7.8125 C 8.226562 -7.757812 8.503906 -7.617188 8.890625 -7.390625 C 8.929688 -7.328125 9.097656 -7.21875 9.390625 -7.0625 C 9.421875 -7.007812 9.460938 -6.953125 9.515625 -6.890625 C 9.578125 -6.828125 9.625 -6.769531 9.65625 -6.71875 L 9.84375 -6.609375 L 10.09375 -6.25 L 10.453125 -5.9375 C 10.609375 -5.769531 10.734375 -5.59375 10.828125 -5.40625 C 11.066406 -5.175781 11.195312 -4.988281 11.21875 -4.84375 L 11.265625 -4.390625 C 11.242188 -4.210938 11.003906 -3.640625 10.546875 -2.671875 C 10.367188 -2.316406 10.144531 -2.039062 9.875 -1.84375 L 9.515625 -1.421875 C 9.410156 -1.285156 9.226562 -1.117188 8.96875 -0.921875 C 8.707031 -0.734375 8.488281 -0.554688 8.3125 -0.390625 C 8.226562 -0.359375 8.101562 -0.285156 7.9375 -0.171875 C 7.769531 -0.0546875 7.519531 0.078125 7.1875 0.234375 C 6.863281 0.398438 6.644531 0.5 6.53125 0.53125 C 6.207031 0.625 5.773438 0.695312 5.234375 0.75 Z M 5.234375 0.75 "/></g></g></g><g fill="#ffffff" fill-opacity="1"><g transform="translate(31.020665, 25.166035)"><g><path d="M 6.328125 -7.5 C 6.328125 -7.71875 6.335938 -7.898438 6.359375 -8.046875 C 6.441406 -8.828125 6.5 -9.320312 6.53125 -9.53125 C 6.570312 -9.738281 6.59375 -9.867188 6.59375 -9.921875 L 6.59375 -10.953125 C 6.644531 -11.015625 6.691406 -11.40625 6.734375 -12.125 C 6.734375 -12.894531 6.769531 -13.460938 6.84375 -13.828125 C 6.84375 -14.066406 6.921875 -14.289062 7.078125 -14.5 C 7.285156 -14.851562 7.535156 -15.101562 7.828125 -15.25 L 7.84375 -15.25 C 8.082031 -15.3125 8.328125 -15.300781 8.578125 -15.21875 C 8.828125 -15.144531 8.96875 -15.101562 9 -15.09375 C 9.03125 -15.082031 9.070312 -15.066406 9.125 -15.046875 C 9.1875 -15.023438 9.226562 -15.007812 9.25 -15 C 9.269531 -14.988281 9.300781 -14.96875 9.34375 -14.9375 C 9.382812 -14.914062 9.414062 -14.894531 9.4375 -14.875 C 9.46875 -14.851562 9.5 -14.828125 9.53125 -14.796875 C 9.5625 -14.773438 9.582031 -14.75 9.59375 -14.71875 C 9.757812 -14.394531 9.875 -13.335938 9.9375 -11.546875 C 9.976562 -11.265625 10 -10.804688 10 -10.171875 C 10 -9.535156 9.992188 -9.109375 9.984375 -8.890625 L 9.984375 -8.640625 C 9.953125 -8.359375 9.9375 -8.144531 9.9375 -8 L 9.9375 -7.828125 C 9.9375 -7.523438 9.910156 -7.289062 9.859375 -7.125 C 9.859375 -6.757812 9.820312 -6.414062 9.75 -6.09375 C 9.75 -5.96875 9.710938 -5.765625 9.640625 -5.484375 C 9.566406 -5.203125 9.53125 -4.972656 9.53125 -4.796875 C 9.539062 -4.722656 9.46875 -4.390625 9.3125 -3.796875 C 9.34375 -3.734375 9.285156 -3.484375 9.140625 -3.046875 C 9.140625 -2.867188 9.082031 -2.664062 8.96875 -2.4375 C 8.863281 -2.207031 8.769531 -1.984375 8.6875 -1.765625 C 8.601562 -1.546875 8.554688 -1.421875 8.546875 -1.390625 C 8.441406 -0.890625 8.1875 -0.351562 7.78125 0.21875 L 7.390625 0.59375 C 7.421875 0.625 7.378906 0.695312 7.265625 0.8125 C 7.171875 0.925781 6.691406 1.21875 5.828125 1.6875 C 5.804688 1.695312 5.640625 1.738281 5.328125 1.8125 C 5.023438 1.894531 4.671875 1.9375 4.265625 1.9375 C 3.867188 1.9375 3.484375 1.875 3.109375 1.75 C 2.890625 1.707031 2.691406 1.628906 2.515625 1.515625 C 2.429688 1.429688 2.316406 1.347656 2.171875 1.265625 C 2.097656 1.265625 1.867188 1.125 1.484375 0.84375 C 1.421875 0.789062 1.210938 0.492188 0.859375 -0.046875 C 0.742188 -0.304688 0.679688 -0.445312 0.671875 -0.46875 C 0.671875 -0.488281 0.648438 -0.539062 0.609375 -0.625 C 0.566406 -0.707031 0.535156 -0.890625 0.515625 -1.171875 C 0.484375 -1.816406 0.703125 -2.140625 1.171875 -2.140625 C 1.648438 -2.140625 2.097656 -1.898438 2.515625 -1.421875 C 2.640625 -1.285156 2.71875 -1.195312 2.75 -1.15625 C 2.78125 -1.125 2.851562 -1.050781 2.96875 -0.9375 C 3.09375 -0.820312 3.191406 -0.75 3.265625 -0.71875 C 3.335938 -0.6875 3.429688 -0.644531 3.546875 -0.59375 C 3.671875 -0.550781 3.789062 -0.53125 3.90625 -0.53125 C 4.019531 -0.53125 4.164062 -0.566406 4.34375 -0.640625 C 4.53125 -0.710938 4.65625 -0.800781 4.71875 -0.90625 C 4.71875 -1.070312 4.8125 -1.28125 5 -1.53125 C 5.1875 -1.789062 5.285156 -1.9375 5.296875 -1.96875 C 5.347656 -2.195312 5.394531 -2.359375 5.4375 -2.453125 C 5.539062 -2.722656 5.625 -3.082031 5.6875 -3.53125 C 5.71875 -3.5625 5.6875 -3.757812 5.59375 -4.125 C 5.59375 -4.195312 5.457031 -4.273438 5.1875 -4.359375 C 4.925781 -4.441406 4.695312 -4.492188 4.5 -4.515625 C 4.1875 -4.453125 3.78125 -4.613281 3.28125 -5 C 3.070312 -5.15625 2.941406 -5.273438 2.890625 -5.359375 C 2.847656 -5.453125 2.804688 -5.515625 2.765625 -5.546875 C 2.722656 -5.578125 2.6875 -5.632812 2.65625 -5.71875 C 2.320312 -6.28125 2.15625 -6.640625 2.15625 -6.796875 L 2.0625 -7.03125 C 2.0625 -7.195312 1.992188 -7.34375 1.859375 -7.46875 C 1.859375 -7.5 1.835938 -7.785156 1.796875 -8.328125 C 1.679688 -8.742188 1.625 -9.125 1.625 -9.46875 L 1.625 -9.84375 L 1.65625 -10.34375 C 1.625 -10.476562 1.628906 -10.738281 1.671875 -11.125 L 1.671875 -12.03125 L 1.703125 -12.390625 L 1.703125 -12.890625 C 1.710938 -12.910156 1.71875 -12.992188 1.71875 -13.140625 L 1.75 -13.375 C 1.75 -13.53125 1.753906 -13.660156 1.765625 -13.765625 C 1.765625 -14.429688 2.117188 -14.820312 2.828125 -14.9375 C 3.367188 -14.988281 3.738281 -14.929688 3.9375 -14.765625 C 4.300781 -14.453125 4.457031 -13.789062 4.40625 -12.78125 C 4.40625 -12.488281 4.390625 -12.25 4.359375 -12.0625 C 4.453125 -11.75 4.476562 -11.484375 4.4375 -11.265625 C 4.46875 -11.148438 4.484375 -11.035156 4.484375 -10.921875 L 4.484375 -10.5625 C 4.484375 -10.5 4.507812 -10.203125 4.5625 -9.671875 C 4.625 -9.148438 4.6875 -8.789062 4.75 -8.59375 C 4.75 -8.382812 4.78125 -8.1875 4.84375 -8 C 4.84375 -7.875 4.929688 -7.632812 5.109375 -7.28125 C 5.253906 -6.5625 5.523438 -6.222656 5.921875 -6.265625 C 6.085938 -6.296875 6.21875 -6.566406 6.3125 -7.078125 C 6.351562 -7.128906 6.359375 -7.269531 6.328125 -7.5 Z M 6.328125 -7.5 "/></g></g></g><g fill="#ffffff" fill-opacity="1"><g transform="translate(41.991711, 25.166035)"><g><path d="M 7.875 -13 C 7.84375 -12.707031 7.828125 -12.410156 7.828125 -12.109375 C 7.828125 -11.523438 7.796875 -11 7.734375 -10.53125 C 7.671875 -10.070312 7.628906 -9.757812 7.609375 -9.59375 C 7.597656 -9.425781 7.578125 -9.265625 7.546875 -9.109375 L 7.546875 -8.9375 C 7.546875 -8.644531 7.476562 -8.351562 7.34375 -8.0625 L 7.28125 -6.984375 L 7.1875 -4.703125 L 7.1875 -3.5 C 7.1875 -2.894531 7.148438 -2.566406 7.078125 -2.515625 L 7.109375 -1.890625 L 7.109375 -1.640625 L 7.078125 -1.34375 C 7.078125 -1.28125 7.0625 -1.25 7.03125 -1.25 C 7.0625 -1.050781 6.984375 -0.84375 6.796875 -0.625 C 6.617188 -0.414062 6.394531 -0.28125 6.125 -0.21875 L 5.6875 -0.140625 C 5.625 -0.140625 5.535156 -0.132812 5.421875 -0.125 C 5.316406 -0.125 5.222656 -0.140625 5.140625 -0.171875 C 5.054688 -0.203125 4.976562 -0.238281 4.90625 -0.28125 C 4.738281 -0.382812 4.625 -0.570312 4.5625 -0.84375 C 4.507812 -0.914062 4.414062 -1.40625 4.28125 -2.3125 C 4.28125 -2.5 4.265625 -2.738281 4.234375 -3.03125 L 4.296875 -3.609375 L 4.296875 -4.0625 C 4.296875 -4.34375 4.328125 -4.539062 4.390625 -4.65625 C 4.328125 -4.75 4.367188 -4.957031 4.515625 -5.28125 C 4.398438 -5.425781 4.40625 -5.75 4.53125 -6.25 C 4.46875 -6.457031 4.46875 -6.59375 4.53125 -6.65625 C 4.570312 -6.75 4.59375 -6.972656 4.59375 -7.328125 L 4.609375 -7.5625 C 4.609375 -8.03125 4.65625 -8.457031 4.75 -8.84375 C 4.71875 -8.882812 4.71875 -9.007812 4.75 -9.21875 C 4.78125 -9.425781 4.804688 -9.675781 4.828125 -9.96875 L 4.828125 -10.140625 C 4.835938 -10.378906 4.84375 -10.632812 4.84375 -10.90625 L 4.875 -11.125 C 4.875 -11.21875 4.894531 -11.40625 4.9375 -11.6875 C 4.976562 -11.976562 5.015625 -12.285156 5.046875 -12.609375 L 5 -12.609375 C 3.300781 -12.140625 2.257812 -11.90625 1.875 -11.90625 L 1.46875 -11.890625 C 1.226562 -11.890625 0.976562 -11.929688 0.71875 -12.015625 C 0.59375 -12.078125 0.5 -12.242188 0.4375 -12.515625 C 0.4375 -13.035156 0.550781 -13.414062 0.78125 -13.65625 C 1.007812 -13.90625 1.445312 -14.132812 2.09375 -14.34375 C 2.25 -14.351562 3.238281 -14.6875 5.0625 -15.34375 L 6.09375 -15.59375 C 6.289062 -15.65625 6.597656 -15.6875 7.015625 -15.6875 C 7.429688 -15.6875 7.78125 -15.738281 8.0625 -15.84375 C 8.34375 -15.945312 8.648438 -16.023438 8.984375 -16.078125 C 9.316406 -16.128906 9.664062 -16.191406 10.03125 -16.265625 C 10.207031 -16.328125 10.53125 -16.304688 11 -16.203125 C 11.175781 -16.203125 11.457031 -16.019531 11.84375 -15.65625 L 11.984375 -15.328125 C 11.984375 -15.222656 12.007812 -15.148438 12.0625 -15.109375 C 12.125 -14.671875 12.023438 -14.390625 11.765625 -14.265625 C 11.671875 -14.210938 11.503906 -14.148438 11.265625 -14.078125 C 10.941406 -14.078125 10.140625 -13.914062 8.859375 -13.59375 C 8.796875 -13.59375 8.476562 -13.546875 7.90625 -13.453125 L 7.875 -13.140625 Z M 7.875 -13 "/></g></g></g><g fill="#ffffff" fill-opacity="1"><g transform="translate(53.442866, 25.166035)"><g><path d="M 3.859375 -5.59375 L 3.859375 -4.640625 C 3.859375 -3.640625 3.914062 -3.085938 4.03125 -2.984375 C 4.019531 -2.960938 4.0625 -2.769531 4.15625 -2.40625 C 4.15625 -2.269531 4.21875 -2.066406 4.34375 -1.796875 C 4.34375 -1.722656 4.566406 -1.53125 5.015625 -1.21875 C 5.210938 -1.21875 5.6875 -1.378906 6.4375 -1.703125 L 8.140625 -2.359375 C 8.347656 -2.421875 8.539062 -2.390625 8.71875 -2.265625 C 8.90625 -2.148438 9.019531 -1.941406 9.0625 -1.640625 C 9.101562 -1.347656 9.09375 -1.132812 9.03125 -1 C 8.976562 -0.875 8.84375 -0.710938 8.625 -0.515625 C 8.414062 -0.328125 8.28125 -0.191406 8.21875 -0.109375 C 8.15625 -0.0351562 8.035156 0.0390625 7.859375 0.125 C 7.679688 0.21875 7.484375 0.3125 7.265625 0.40625 C 7.046875 0.5 6.898438 0.570312 6.828125 0.625 C 6.203125 0.914062 5.71875 1.023438 5.375 0.953125 C 5.164062 0.953125 4.953125 0.910156 4.734375 0.828125 C 4.523438 0.753906 4.40625 0.722656 4.375 0.734375 C 4.351562 0.742188 4.289062 0.734375 4.1875 0.703125 C 4.082031 0.679688 3.984375 0.65625 3.890625 0.625 C 3.796875 0.601562 3.546875 0.554688 3.140625 0.484375 C 3.140625 0.421875 3.03125 0.351562 2.8125 0.28125 L 2.15625 -0.234375 C 2.050781 -0.304688 1.929688 -0.507812 1.796875 -0.84375 L 1.578125 -1.203125 C 1.515625 -1.242188 1.429688 -1.425781 1.328125 -1.75 C 1.253906 -1.832031 1.210938 -1.976562 1.203125 -2.1875 C 1.117188 -2.363281 1.078125 -2.613281 1.078125 -2.9375 C 1.015625 -3.007812 0.941406 -3.3125 0.859375 -3.84375 C 0.753906 -4.53125 0.75 -5.144531 0.84375 -5.6875 C 0.84375 -5.988281 0.898438 -6.285156 1.015625 -6.578125 C 1.023438 -6.703125 1.039062 -6.832031 1.0625 -6.96875 C 1.132812 -7.382812 1.1875 -7.703125 1.21875 -7.921875 C 1.15625 -8.148438 1.257812 -8.6875 1.53125 -9.53125 C 1.53125 -9.65625 1.582031 -9.84375 1.6875 -10.09375 C 1.789062 -10.34375 1.851562 -10.601562 1.875 -10.875 L 2.0625 -11.328125 C 2.0625 -11.460938 2.179688 -11.9375 2.421875 -12.75 C 2.554688 -13.050781 2.625 -13.226562 2.625 -13.28125 L 3.21875 -14.546875 L 3.5 -14.9375 C 3.613281 -15.050781 3.785156 -15.144531 4.015625 -15.21875 C 4.109375 -15.300781 4.363281 -15.296875 4.78125 -15.203125 C 5.03125 -15.109375 5.207031 -15.007812 5.3125 -14.90625 C 5.414062 -14.863281 5.550781 -14.84375 5.71875 -14.84375 L 7.5625 -14.96875 C 8.03125 -14.925781 8.34375 -14.867188 8.5 -14.796875 C 8.65625 -14.734375 8.8125 -14.613281 8.96875 -14.4375 C 9.125 -14.257812 9.179688 -14.082031 9.140625 -13.90625 C 9.097656 -13.726562 9.03125 -13.59375 8.9375 -13.5 C 8.726562 -13.320312 8.34375 -13.113281 7.78125 -12.875 C 6.800781 -12.34375 6.273438 -12.0625 6.203125 -12.03125 L 5.625 -11.765625 C 5.382812 -11.609375 5.226562 -11.441406 5.15625 -11.265625 C 4.664062 -9.472656 4.398438 -8.472656 4.359375 -8.265625 C 4.316406 -8.066406 4.289062 -7.945312 4.28125 -7.90625 C 4.28125 -7.875 4.28125 -7.847656 4.28125 -7.828125 L 4.75 -7.875 C 5.457031 -8.101562 5.875 -8.175781 6 -8.09375 C 6.0625 -8.09375 6.148438 -8.117188 6.265625 -8.171875 C 6.859375 -8.378906 7.378906 -8.460938 7.828125 -8.421875 C 7.910156 -8.472656 8 -8.441406 8.09375 -8.328125 C 8.1875 -8.222656 8.257812 -8.085938 8.3125 -7.921875 C 8.40625 -7.523438 8.285156 -7.210938 7.953125 -6.984375 C 7.273438 -6.535156 6.472656 -6.175781 5.546875 -5.90625 C 5.242188 -5.664062 4.820312 -5.515625 4.28125 -5.453125 Z M 3.859375 -5.59375 "/></g></g></g><g fill="#ffffff" fill-opacity="1"><g transform="translate(63.069536, 25.166035)"><g><path d="M 6.96875 -9.9375 L 7.34375 -10.765625 C 7.425781 -10.984375 7.460938 -11.15625 7.453125 -11.28125 C 7.441406 -11.414062 7.4375 -11.519531 7.4375 -11.59375 C 7.4375 -11.675781 7.425781 -11.773438 7.40625 -11.890625 C 7.394531 -12.015625 7.34375 -12.132812 7.25 -12.25 C 7.164062 -12.375 7.082031 -12.457031 7 -12.5 C 6.914062 -12.539062 6.753906 -12.609375 6.515625 -12.703125 L 5.984375 -12.734375 C 5.503906 -12.828125 5.09375 -12.785156 4.75 -12.609375 C 4.75 -12.253906 4.660156 -11.519531 4.484375 -10.40625 L 4.34375 -8.734375 L 4.234375 -7.875 C 4.335938 -7.875 4.625 -7.960938 5.09375 -8.140625 L 5.421875 -8.421875 C 5.492188 -8.441406 5.695312 -8.617188 6.03125 -8.953125 C 6.101562 -8.984375 6.191406 -9.066406 6.296875 -9.203125 L 6.53125 -9.484375 C 6.582031 -9.472656 6.671875 -9.550781 6.796875 -9.71875 Z M 4.171875 -3.53125 L 4.234375 -2.953125 C 4.296875 -2.804688 4.289062 -2.597656 4.21875 -2.328125 C 4.15625 -2.054688 4.148438 -1.847656 4.203125 -1.703125 C 4.203125 -1.429688 4.210938 -1.269531 4.234375 -1.21875 C 4.367188 -1.21875 4.582031 -1.28125 4.875 -1.40625 C 5.175781 -1.539062 5.367188 -1.613281 5.453125 -1.625 C 5.535156 -1.644531 5.640625 -1.710938 5.765625 -1.828125 C 6.160156 -2.035156 6.578125 -2.273438 7.015625 -2.546875 L 7.5625 -3.046875 C 8.03125 -3.609375 8.351562 -4.019531 8.53125 -4.28125 L 8.671875 -4.703125 C 8.878906 -5.148438 8.675781 -5.578125 8.0625 -5.984375 C 7.9375 -6.171875 7.675781 -6.296875 7.28125 -6.359375 L 7.25 -6.359375 C 6.6875 -6.523438 6.359375 -6.59375 6.265625 -6.5625 L 5.21875 -6.3125 C 5.019531 -6.21875 4.84375 -6.171875 4.6875 -6.171875 C 4.539062 -6.171875 4.378906 -6.242188 4.203125 -6.390625 L 4.234375 -5.71875 C 4.117188 -5.414062 4.082031 -5.117188 4.125 -4.828125 C 4.195312 -4.535156 4.210938 -4.101562 4.171875 -3.53125 Z M 5.234375 0.75 L 5.015625 0.75 C 4.859375 0.78125 4.546875 0.753906 4.078125 0.671875 C 3.265625 0.546875 2.609375 0.289062 2.109375 -0.09375 C 1.960938 -0.21875 1.796875 -0.390625 1.609375 -0.609375 C 1.429688 -0.828125 1.34375 -0.972656 1.34375 -1.046875 C 1.34375 -1.128906 1.347656 -1.234375 1.359375 -1.359375 C 1.367188 -1.492188 1.359375 -1.625 1.328125 -1.75 L 1.328125 -1.9375 C 1.273438 -2.039062 1.28125 -2.210938 1.34375 -2.453125 C 1.40625 -2.703125 1.421875 -2.910156 1.390625 -3.078125 C 1.359375 -3.285156 1.335938 -3.507812 1.328125 -3.75 C 1.273438 -3.8125 1.296875 -3.988281 1.390625 -4.28125 C 1.515625 -6.4375 1.578125 -7.617188 1.578125 -7.828125 L 1.703125 -8.546875 C 1.617188 -9.023438 1.632812 -9.441406 1.75 -9.796875 L 1.75 -10.328125 C 1.738281 -10.546875 1.800781 -11.191406 1.9375 -12.265625 C 1.875 -12.460938 1.660156 -12.710938 1.296875 -13.015625 C 1.210938 -13.097656 1.128906 -13.222656 1.046875 -13.390625 C 0.972656 -13.554688 1.007812 -13.820312 1.15625 -14.1875 C 1.25 -14.320312 1.53125 -14.53125 2 -14.8125 C 2.03125 -14.914062 2.460938 -15.101562 3.296875 -15.375 L 3.75 -15.5625 C 3.96875 -15.644531 4.414062 -15.675781 5.09375 -15.65625 C 5.457031 -15.613281 5.753906 -15.539062 5.984375 -15.4375 C 6.796875 -15.039062 7.546875 -14.585938 8.234375 -14.078125 C 8.441406 -13.972656 8.585938 -13.84375 8.671875 -13.6875 C 8.960938 -13.5 9.226562 -13.191406 9.46875 -12.765625 C 9.71875 -12.335938 9.859375 -12.066406 9.890625 -11.953125 C 9.972656 -11.441406 9.894531 -10.828125 9.65625 -10.109375 C 9.539062 -9.742188 9.007812 -8.976562 8.0625 -7.8125 C 8.226562 -7.757812 8.503906 -7.617188 8.890625 -7.390625 C 8.929688 -7.328125 9.097656 -7.21875 9.390625 -7.0625 C 9.421875 -7.007812 9.460938 -6.953125 9.515625 -6.890625 C 9.578125 -6.828125 9.625 -6.769531 9.65625 -6.71875 L 9.84375 -6.609375 L 10.09375 -6.25 L 10.453125 -5.9375 C 10.609375 -5.769531 10.734375 -5.59375 10.828125 -5.40625 C 11.066406 -5.175781 11.195312 -4.988281 11.21875 -4.84375 L 11.265625 -4.390625 C 11.242188 -4.210938 11.003906 -3.640625 10.546875 -2.671875 C 10.367188 -2.316406 10.144531 -2.039062 9.875 -1.84375 L 9.515625 -1.421875 C 9.410156 -1.285156 9.226562 -1.117188 8.96875 -0.921875 C 8.707031 -0.734375 8.488281 -0.554688 8.3125 -0.390625 C 8.226562 -0.359375 8.101562 -0.285156 7.9375 -0.171875 C 7.769531 -0.0546875 7.519531 0.078125 7.1875 0.234375 C 6.863281 0.398438 6.644531 0.5 6.53125 0.53125 C 6.207031 0.625 5.773438 0.695312 5.234375 0.75 Z M 5.234375 0.75 "/></g></g></g><g fill="#ffffff" fill-opacity="1"><g transform="translate(74.640726, 25.166035)"><g><path d="M 4.78125 -11.453125 C 4.78125 -10.703125 4.675781 -9.703125 4.46875 -8.453125 C 4.5625 -8.535156 4.707031 -8.671875 4.90625 -8.859375 C 5.125 -9.085938 5.570312 -9.414062 6.25 -9.84375 L 6.609375 -10.109375 L 7.328125 -10.46875 L 8.125 -11 C 8.082031 -11.03125 8.117188 -11.109375 8.234375 -11.234375 C 8.535156 -11.765625 8.710938 -12.226562 8.765625 -12.625 C 8.765625 -12.832031 8.734375 -12.988281 8.671875 -13.09375 C 8.609375 -13.195312 8.40625 -13.265625 8.0625 -13.296875 C 8.03125 -13.335938 7.878906 -13.378906 7.609375 -13.421875 C 6.953125 -13.421875 6.515625 -13.378906 6.296875 -13.296875 C 6.085938 -13.222656 5.925781 -13.1875 5.8125 -13.1875 L 5.453125 -13.09375 L 5.046875 -13.0625 L 4.953125 -12.421875 C 4.953125 -12.398438 4.914062 -12.238281 4.84375 -11.9375 C 4.84375 -11.820312 4.820312 -11.660156 4.78125 -11.453125 Z M 8.859375 -0.84375 C 8.617188 -0.914062 8.285156 -1.144531 7.859375 -1.53125 C 7.773438 -1.644531 7.566406 -1.835938 7.234375 -2.109375 C 6.910156 -2.304688 6.507812 -2.679688 6.03125 -3.234375 C 6.03125 -3.253906 5.972656 -3.382812 5.859375 -3.625 C 5.671875 -3.800781 5.488281 -4.15625 5.3125 -4.6875 C 5.289062 -4.695312 5.265625 -4.722656 5.234375 -4.765625 C 5.203125 -4.816406 5.148438 -4.894531 5.078125 -5 C 5.003906 -5.101562 4.925781 -5.285156 4.84375 -5.546875 C 4.769531 -5.804688 4.613281 -6.085938 4.375 -6.390625 L 4.28125 -6.390625 C 4.28125 -6.296875 4.253906 -6.160156 4.203125 -5.984375 L 4.203125 -5.5 L 4.0625 -4.109375 L 3.703125 -1.78125 C 3.765625 -1.644531 3.765625 -1.425781 3.703125 -1.125 C 3.703125 -1 3.660156 -0.789062 3.578125 -0.5 C 3.492188 -0.21875 3.375 -0.03125 3.21875 0.0625 C 3.0625 0.164062 2.75 0.1875 2.28125 0.125 C 2.125 0.0625 1.898438 -0.160156 1.609375 -0.546875 C 1.492188 -0.597656 1.332031 -0.859375 1.125 -1.328125 C 1.15625 -1.609375 1.160156 -1.785156 1.140625 -1.859375 C 1.128906 -1.929688 1.125 -2.023438 1.125 -2.140625 C 1.125 -2.253906 1.132812 -2.328125 1.15625 -2.359375 C 1.125 -2.328125 1.125 -2.484375 1.15625 -2.828125 L 1.15625 -3 C 1.15625 -3.0625 1.203125 -3.316406 1.296875 -3.765625 C 1.296875 -4.109375 1.300781 -4.347656 1.3125 -4.484375 C 1.320312 -4.617188 1.375 -4.78125 1.46875 -4.96875 L 1.46875 -5.625 L 1.484375 -6.265625 C 1.585938 -6.554688 1.640625 -6.894531 1.640625 -7.28125 C 1.671875 -7.46875 1.6875 -7.65625 1.6875 -7.84375 C 1.695312 -8.03125 1.726562 -8.234375 1.78125 -8.453125 C 1.78125 -8.804688 1.800781 -9.070312 1.84375 -9.25 C 1.894531 -9.4375 1.921875 -9.566406 1.921875 -9.640625 C 1.929688 -9.710938 1.945312 -9.828125 1.96875 -9.984375 L 2.140625 -11.015625 L 2.203125 -12.53125 L 1.921875 -12.734375 C 1.410156 -12.941406 1.050781 -13.148438 0.84375 -13.359375 C 0.757812 -13.398438 0.726562 -13.519531 0.75 -13.71875 C 0.78125 -13.925781 0.890625 -14.09375 1.078125 -14.21875 C 1.304688 -14.21875 1.632812 -14.351562 2.0625 -14.625 C 2.113281 -14.625 2.257812 -14.703125 2.5 -14.859375 L 2.9375 -15.015625 C 2.976562 -15.054688 3.175781 -15.144531 3.53125 -15.28125 C 3.613281 -15.28125 3.738281 -15.320312 3.90625 -15.40625 C 4.082031 -15.488281 4.269531 -15.539062 4.46875 -15.5625 C 4.625 -15.582031 4.945312 -15.625 5.4375 -15.6875 C 5.925781 -15.757812 6.335938 -15.75 6.671875 -15.65625 C 6.878906 -15.65625 7.101562 -15.613281 7.34375 -15.53125 C 7.726562 -15.53125 8.160156 -15.40625 8.640625 -15.15625 C 8.753906 -15.15625 8.914062 -15.082031 9.125 -14.9375 L 9.578125 -14.71875 L 10.1875 -14.234375 C 10.519531 -13.960938 10.820312 -13.617188 11.09375 -13.203125 C 11.289062 -13.015625 11.363281 -12.769531 11.3125 -12.46875 C 11.082031 -11.070312 10.113281 -9.6875 8.40625 -8.3125 L 7.703125 -8 L 6.53125 -7.25 C 6.925781 -6.6875 7.445312 -6.03125 8.09375 -5.28125 C 8.144531 -5.164062 8.328125 -4.941406 8.640625 -4.609375 L 9.46875 -3.609375 L 9.75 -3.171875 L 10.40625 -2.453125 C 10.445312 -2.335938 10.582031 -2.203125 10.8125 -2.046875 L 11.21875 -1.65625 C 11.582031 -1.363281 11.734375 -1.035156 11.671875 -0.671875 C 11.609375 -0.304688 11.382812 -0.113281 11 -0.09375 L 10.421875 -0.140625 L 9.265625 -0.453125 Z M 8.859375 -0.84375 "/></g></g></g><g fill="#ffffff" fill-opacity="1"><g transform="translate(86.476009, 25.166035)"><g><path d="M 9.046875 -13.203125 C 9.097656 -12.992188 9.054688 -12.851562 8.921875 -12.78125 C 8.796875 -12.71875 8.664062 -12.6875 8.53125 -12.6875 C 8.394531 -12.6875 8.039062 -12.664062 7.46875 -12.625 C 7.101562 -12.550781 6.734375 -12.445312 6.359375 -12.3125 L 6.34375 -12.3125 C 6.34375 -12.03125 6.257812 -11.609375 6.09375 -11.046875 C 6.09375 -10.859375 6.054688 -10.546875 5.984375 -10.109375 C 5.984375 -9.984375 5.957031 -9.851562 5.90625 -9.71875 C 5.851562 -9.59375 5.828125 -9.394531 5.828125 -9.125 C 5.722656 -8.46875 5.675781 -8.109375 5.6875 -8.046875 C 5.707031 -7.984375 5.707031 -7.894531 5.6875 -7.78125 C 5.675781 -7.664062 5.644531 -7.492188 5.59375 -7.265625 C 5.550781 -7.046875 5.53125 -6.785156 5.53125 -6.484375 C 5.53125 -6.179688 5.488281 -5.910156 5.40625 -5.671875 L 5.40625 -5.40625 C 5.4375 -4.820312 5.414062 -4.410156 5.34375 -4.171875 C 5.269531 -3.929688 5.234375 -3.726562 5.234375 -3.5625 C 5.234375 -3.394531 5.191406 -3.132812 5.109375 -2.78125 C 5.035156 -2.425781 5.015625 -2.007812 5.046875 -1.53125 L 5.1875 -1.53125 C 5.582031 -1.5625 5.789062 -1.570312 5.8125 -1.5625 C 5.84375 -1.5625 5.953125 -1.585938 6.140625 -1.640625 L 6.53125 -1.609375 L 6.765625 -1.609375 C 6.816406 -1.609375 6.921875 -1.546875 7.078125 -1.421875 C 7.242188 -1.304688 7.359375 -1.191406 7.421875 -1.078125 C 7.535156 -0.960938 7.570312 -0.851562 7.53125 -0.75 C 7.488281 -0.644531 7.304688 -0.472656 6.984375 -0.234375 L 6.53125 -0.09375 C 6.476562 -0.0507812 6.363281 0 6.1875 0.0625 C 6.019531 0.132812 5.867188 0.171875 5.734375 0.171875 C 5.367188 0.242188 5.15625 0.378906 5.09375 0.578125 C 5.03125 0.703125 4.644531 0.75 3.9375 0.71875 L 3.125 0.71875 L 2.671875 0.859375 C 2.265625 1.023438 1.910156 1.066406 1.609375 0.984375 C 1.304688 0.898438 1.101562 0.835938 1 0.796875 C 0.894531 0.765625 0.769531 0.6875 0.625 0.5625 C 0.476562 0.445312 0.414062 0.3125 0.4375 0.15625 C 0.46875 0 0.519531 -0.21875 0.59375 -0.5 C 0.875 -0.726562 1.066406 -0.875 1.171875 -0.9375 C 1.941406 -1.175781 2.429688 -1.335938 2.640625 -1.421875 C 2.640625 -1.941406 2.625 -2.253906 2.59375 -2.359375 C 2.644531 -2.367188 2.703125 -2.710938 2.765625 -3.390625 C 2.773438 -3.453125 2.734375 -3.601562 2.640625 -3.84375 L 2.640625 -3.984375 C 2.691406 -4.429688 2.6875 -4.84375 2.625 -5.21875 C 2.625 -5.226562 2.65625 -5.503906 2.71875 -6.046875 C 2.789062 -6.148438 2.789062 -6.410156 2.71875 -6.828125 C 2.78125 -7.128906 2.832031 -7.367188 2.875 -7.546875 L 2.90625 -7.875 C 2.90625 -7.96875 2.953125 -8.253906 3.046875 -8.734375 L 3.046875 -8.984375 L 3.09375 -9.171875 C 3.382812 -10.359375 3.578125 -11.222656 3.671875 -11.765625 C 3.546875 -11.734375 3.46875 -11.71875 3.4375 -11.71875 L 2.640625 -11.59375 C 2.035156 -11.4375 1.5 -11.578125 1.03125 -12.015625 C 0.632812 -12.554688 0.628906 -13.019531 1.015625 -13.40625 C 1.253906 -13.613281 1.617188 -13.753906 2.109375 -13.828125 C 2.546875 -13.972656 2.828125 -14.078125 2.953125 -14.140625 C 3.109375 -14.140625 3.484375 -14.316406 4.078125 -14.671875 C 4.671875 -14.753906 5.015625 -14.796875 5.109375 -14.796875 L 6.25 -14.9375 C 6.382812 -14.957031 6.570312 -14.945312 6.8125 -14.90625 C 7.0625 -14.863281 7.207031 -14.8125 7.25 -14.75 C 7.457031 -14.695312 7.710938 -14.597656 8.015625 -14.453125 L 8.59375 -13.921875 C 8.820312 -13.609375 8.972656 -13.367188 9.046875 -13.203125 Z M 9.046875 -13.203125 "/></g></g></g><g fill="#ffffff" fill-opacity="1"><g transform="translate(95.598517, 25.166035)"><g><path d="M 9.34375 -6.875 C 9.4375 -7.0625 9.5 -7.410156 9.53125 -7.921875 C 9.5625 -8.429688 9.59375 -8.785156 9.625 -8.984375 C 9.625 -10.859375 9.113281 -12.082031 8.09375 -12.65625 C 7.675781 -12.894531 7.273438 -12.957031 6.890625 -12.84375 C 6.710938 -12.84375 6.441406 -12.734375 6.078125 -12.515625 C 6.054688 -12.285156 6.046875 -11.910156 6.046875 -11.390625 L 5.9375 -10.5 L 5.71875 -8.28125 C 5.71875 -8.25 5.703125 -8.019531 5.671875 -7.59375 C 5.429688 -5.070312 5.3125 -3.1875 5.3125 -1.9375 C 5.59375 -2.007812 5.835938 -2.148438 6.046875 -2.359375 C 6.609375 -2.816406 6.921875 -3.0625 6.984375 -3.09375 L 7.328125 -3.40625 C 7.398438 -3.425781 7.609375 -3.617188 7.953125 -3.984375 L 7.953125 -4.015625 L 8.40625 -4.609375 L 8.890625 -5.59375 C 9.015625 -5.769531 9.164062 -6.195312 9.34375 -6.875 Z M 2.40625 -3.234375 C 2.375 -3.304688 2.359375 -3.425781 2.359375 -3.59375 C 2.359375 -3.757812 2.378906 -3.953125 2.421875 -4.171875 C 2.472656 -4.398438 2.5 -4.664062 2.5 -4.96875 C 2.5 -5.269531 2.546875 -5.660156 2.640625 -6.140625 C 2.578125 -6.242188 2.585938 -6.609375 2.671875 -7.234375 C 2.742188 -7.367188 2.769531 -7.554688 2.75 -7.796875 C 2.738281 -8.046875 2.734375 -8.238281 2.734375 -8.375 C 2.734375 -9.070312 2.75 -9.46875 2.78125 -9.5625 C 2.8125 -9.65625 2.820312 -9.847656 2.8125 -10.140625 C 2.90625 -10.234375 2.984375 -10.609375 3.046875 -11.265625 C 2.503906 -11.242188 2.097656 -11.390625 1.828125 -11.703125 C 1.554688 -12.015625 1.332031 -12.460938 1.15625 -13.046875 C 1.164062 -13.140625 1.179688 -13.226562 1.203125 -13.3125 C 1.234375 -13.40625 1.253906 -13.484375 1.265625 -13.546875 C 1.285156 -13.609375 1.316406 -13.675781 1.359375 -13.75 C 1.410156 -13.820312 1.445312 -13.878906 1.46875 -13.921875 C 1.5 -13.960938 1.550781 -14.015625 1.625 -14.078125 C 1.707031 -14.148438 1.765625 -14.195312 1.796875 -14.21875 C 1.828125 -14.25 1.898438 -14.300781 2.015625 -14.375 C 2.128906 -14.445312 2.203125 -14.492188 2.234375 -14.515625 C 2.265625 -14.535156 2.347656 -14.585938 2.484375 -14.671875 C 2.617188 -14.765625 2.710938 -14.828125 2.765625 -14.859375 C 2.804688 -14.941406 2.929688 -15.003906 3.140625 -15.046875 C 3.347656 -15.085938 3.660156 -15.195312 4.078125 -15.375 C 4.140625 -15.4375 4.515625 -15.539062 5.203125 -15.6875 C 5.898438 -15.84375 6.578125 -15.785156 7.234375 -15.515625 C 7.597656 -15.515625 7.859375 -15.484375 8.015625 -15.421875 C 8.179688 -15.273438 8.398438 -15.171875 8.671875 -15.109375 L 9.890625 -14.453125 C 10.066406 -14.273438 10.425781 -13.859375 10.96875 -13.203125 C 11.5625 -12.148438 11.941406 -11.078125 12.109375 -9.984375 C 12.117188 -9.679688 12.125 -9.144531 12.125 -8.375 C 11.976562 -6.925781 11.710938 -5.875 11.328125 -5.21875 C 11.296875 -5.019531 11.210938 -4.773438 11.078125 -4.484375 C 11.078125 -4.453125 10.96875 -4.253906 10.75 -3.890625 C 10.53125 -3.535156 10.285156 -3.1875 10.015625 -2.84375 C 9.742188 -2.5 9.566406 -2.269531 9.484375 -2.15625 C 8.828125 -1.550781 8.457031 -1.21875 8.375 -1.15625 C 8.007812 -0.882812 7.800781 -0.738281 7.75 -0.71875 C 6.539062 -0.113281 5.898438 0.210938 5.828125 0.265625 C 5.753906 0.316406 5.554688 0.375 5.234375 0.4375 C 4.765625 0.476562 4.476562 0.453125 4.375 0.359375 C 4.113281 0.242188 3.878906 0.078125 3.671875 -0.140625 C 3.609375 -0.160156 3.484375 -0.289062 3.296875 -0.53125 C 3.035156 -0.71875 2.890625 -0.828125 2.859375 -0.859375 C 2.648438 -1.171875 2.5 -1.75 2.40625 -2.59375 C 2.382812 -2.65625 2.382812 -2.867188 2.40625 -3.234375 Z M 2.40625 -3.234375 "/></g></g></g><g fill="#ffffff" fill-opacity="1"><g transform="translate(108.418072, 25.166035)"><g><path d="M 4.015625 -0.125 L 3.546875 -0.09375 C 3.515625 -0.125 3.34375 -0.148438 3.03125 -0.171875 C 3 -0.234375 2.878906 -0.304688 2.671875 -0.390625 C 2.566406 -0.390625 2.363281 -0.539062 2.0625 -0.84375 C 1.789062 -1.0625 1.648438 -1.1875 1.640625 -1.21875 C 1.617188 -1.289062 1.5625 -1.375 1.46875 -1.46875 C 1.40625 -1.5625 1.332031 -1.785156 1.25 -2.140625 C 0.988281 -2.921875 0.847656 -3.429688 0.828125 -3.671875 C 0.816406 -3.910156 0.835938 -4.25 0.890625 -4.6875 C 0.828125 -4.757812 0.832031 -4.957031 0.90625 -5.28125 C 0.90625 -5.457031 0.929688 -5.859375 0.984375 -6.484375 L 0.984375 -6.625 L 1.078125 -7.703125 C 1.066406 -8.023438 1.113281 -8.351562 1.21875 -8.6875 C 1.332031 -9.03125 1.414062 -9.34375 1.46875 -9.625 C 1.507812 -9.644531 1.554688 -9.851562 1.609375 -10.25 C 1.847656 -11.007812 1.992188 -11.425781 2.046875 -11.5 L 2.421875 -12.171875 C 2.472656 -12.222656 2.546875 -12.328125 2.640625 -12.484375 L 3.359375 -13.421875 C 3.453125 -13.535156 3.660156 -13.671875 3.984375 -13.828125 C 4.160156 -14.003906 4.367188 -14.140625 4.609375 -14.234375 C 5.222656 -14.492188 5.742188 -14.648438 6.171875 -14.703125 C 6.359375 -14.554688 6.625 -14.601562 6.96875 -14.84375 C 7.925781 -14.757812 8.566406 -14.71875 8.890625 -14.71875 C 9.222656 -14.71875 9.550781 -14.660156 9.875 -14.546875 C 10.351562 -14.453125 10.597656 -14.269531 10.609375 -14 C 10.640625 -13.601562 10.582031 -13.300781 10.4375 -13.09375 C 10.300781 -12.882812 10.117188 -12.796875 9.890625 -12.828125 C 9.234375 -12.921875 8.695312 -12.953125 8.28125 -12.921875 C 7.863281 -12.890625 7.472656 -12.769531 7.109375 -12.5625 C 7.078125 -12.539062 7.003906 -12.507812 6.890625 -12.46875 C 6.640625 -12.351562 6.429688 -12.234375 6.265625 -12.109375 C 5.671875 -11.609375 5.117188 -10.671875 4.609375 -9.296875 L 4.53125 -8.890625 C 4.550781 -8.898438 4.554688 -8.894531 4.546875 -8.875 C 4.535156 -8.851562 4.519531 -8.804688 4.5 -8.734375 C 4.476562 -8.660156 4.460938 -8.597656 4.453125 -8.546875 C 4.441406 -8.503906 4.414062 -8.425781 4.375 -8.3125 C 4.207031 -7.875 4.0625 -7.265625 3.9375 -6.484375 C 3.820312 -5.710938 3.765625 -5.070312 3.765625 -4.5625 C 3.765625 -4.050781 3.851562 -3.644531 4.03125 -3.34375 L 4.421875 -2.90625 C 4.484375 -2.78125 4.675781 -2.628906 5 -2.453125 C 5.144531 -2.273438 5.359375 -2.097656 5.640625 -1.921875 C 5.898438 -1.804688 6.332031 -1.925781 6.9375 -2.28125 C 7 -2.332031 7.0625 -2.390625 7.125 -2.453125 L 7.703125 -2.828125 C 8.054688 -3.203125 8.273438 -3.453125 8.359375 -3.578125 L 8.640625 -3.8125 L 8.734375 -4.5625 C 8.734375 -4.582031 8.753906 -4.628906 8.796875 -4.703125 C 8.859375 -4.941406 8.890625 -5.148438 8.890625 -5.328125 L 8.890625 -5.671875 L 8.84375 -6.40625 C 8.851562 -6.632812 8.816406 -6.789062 8.734375 -6.875 C 8.492188 -6.875 8.046875 -6.648438 7.390625 -6.203125 C 7.347656 -6.160156 7.242188 -6.144531 7.078125 -6.15625 C 6.910156 -6.164062 6.773438 -6.195312 6.671875 -6.25 C 6.398438 -6.40625 6.265625 -6.601562 6.265625 -6.84375 C 6.265625 -7.082031 6.285156 -7.273438 6.328125 -7.421875 C 6.378906 -7.566406 6.410156 -7.660156 6.421875 -7.703125 C 6.429688 -7.753906 6.460938 -7.804688 6.515625 -7.859375 C 6.578125 -7.921875 6.65625 -7.984375 6.75 -8.046875 C 6.84375 -8.109375 6.957031 -8.207031 7.09375 -8.34375 C 7.226562 -8.476562 7.507812 -8.648438 7.9375 -8.859375 C 8.375 -9.066406 8.863281 -9.171875 9.40625 -9.171875 C 9.957031 -9.171875 10.398438 -9.015625 10.734375 -8.703125 C 11.066406 -8.390625 11.351562 -7.8125 11.59375 -6.96875 C 11.625 -6.769531 11.640625 -6.347656 11.640625 -5.703125 C 11.640625 -5.054688 11.488281 -3.851562 11.1875 -2.09375 C 11.113281 -1.320312 11.023438 -0.800781 10.921875 -0.53125 C 10.816406 -0.269531 10.742188 0 10.703125 0.28125 C 10.671875 0.5625 10.644531 0.753906 10.625 0.859375 C 10.601562 0.972656 10.585938 1.050781 10.578125 1.09375 C 10.566406 1.132812 10.554688 1.171875 10.546875 1.203125 C 10.546875 1.234375 10.519531 1.320312 10.46875 1.46875 C 10.425781 1.625 10.304688 1.78125 10.109375 1.9375 C 9.921875 2.101562 9.742188 2.191406 9.578125 2.203125 C 9.054688 2.109375 8.707031 1.941406 8.53125 1.703125 C 8.457031 1.609375 8.363281 1.429688 8.25 1.171875 C 8.144531 0.921875 8.085938 0.703125 8.078125 0.515625 C 8.066406 0.328125 8.066406 0.203125 8.078125 0.140625 C 8.085938 0.078125 8.113281 -0.113281 8.15625 -0.4375 C 8.207031 -0.769531 8.242188 -1.023438 8.265625 -1.203125 L 7.609375 -0.40625 C 7.609375 -0.34375 7.46875 -0.234375 7.1875 -0.078125 C 7.050781 0.0546875 6.679688 0.109375 6.078125 0.078125 L 5.859375 0.078125 C 5.835938 0.203125 5.460938 0.191406 4.734375 0.046875 C 4.640625 0.0664062 4.398438 0.0078125 4.015625 -0.125 Z M 4.015625 -0.125 "/></g></g></g><g fill="#ffffff" fill-opacity="1"><g transform="translate(120.901518, 25.166035)"><g><path d="M 3.859375 -5.59375 L 3.859375 -4.640625 C 3.859375 -3.640625 3.914062 -3.085938 4.03125 -2.984375 C 4.019531 -2.960938 4.0625 -2.769531 4.15625 -2.40625 C 4.15625 -2.269531 4.21875 -2.066406 4.34375 -1.796875 C 4.34375 -1.722656 4.566406 -1.53125 5.015625 -1.21875 C 5.210938 -1.21875 5.6875 -1.378906 6.4375 -1.703125 L 8.140625 -2.359375 C 8.347656 -2.421875 8.539062 -2.390625 8.71875 -2.265625 C 8.90625 -2.148438 9.019531 -1.941406 9.0625 -1.640625 C 9.101562 -1.347656 9.09375 -1.132812 9.03125 -1 C 8.976562 -0.875 8.84375 -0.710938 8.625 -0.515625 C 8.414062 -0.328125 8.28125 -0.191406 8.21875 -0.109375 C 8.15625 -0.0351562 8.035156 0.0390625 7.859375 0.125 C 7.679688 0.21875 7.484375 0.3125 7.265625 0.40625 C 7.046875 0.5 6.898438 0.570312 6.828125 0.625 C 6.203125 0.914062 5.71875 1.023438 5.375 0.953125 C 5.164062 0.953125 4.953125 0.910156 4.734375 0.828125 C 4.523438 0.753906 4.40625 0.722656 4.375 0.734375 C 4.351562 0.742188 4.289062 0.734375 4.1875 0.703125 C 4.082031 0.679688 3.984375 0.65625 3.890625 0.625 C 3.796875 0.601562 3.546875 0.554688 3.140625 0.484375 C 3.140625 0.421875 3.03125 0.351562 2.8125 0.28125 L 2.15625 -0.234375 C 2.050781 -0.304688 1.929688 -0.507812 1.796875 -0.84375 L 1.578125 -1.203125 C 1.515625 -1.242188 1.429688 -1.425781 1.328125 -1.75 C 1.253906 -1.832031 1.210938 -1.976562 1.203125 -2.1875 C 1.117188 -2.363281 1.078125 -2.613281 1.078125 -2.9375 C 1.015625 -3.007812 0.941406 -3.3125 0.859375 -3.84375 C 0.753906 -4.53125 0.75 -5.144531 0.84375 -5.6875 C 0.84375 -5.988281 0.898438 -6.285156 1.015625 -6.578125 C 1.023438 -6.703125 1.039062 -6.832031 1.0625 -6.96875 C 1.132812 -7.382812 1.1875 -7.703125 1.21875 -7.921875 C 1.15625 -8.148438 1.257812 -8.6875 1.53125 -9.53125 C 1.53125 -9.65625 1.582031 -9.84375 1.6875 -10.09375 C 1.789062 -10.34375 1.851562 -10.601562 1.875 -10.875 L 2.0625 -11.328125 C 2.0625 -11.460938 2.179688 -11.9375 2.421875 -12.75 C 2.554688 -13.050781 2.625 -13.226562 2.625 -13.28125 L 3.21875 -14.546875 L 3.5 -14.9375 C 3.613281 -15.050781 3.785156 -15.144531 4.015625 -15.21875 C 4.109375 -15.300781 4.363281 -15.296875 4.78125 -15.203125 C 5.03125 -15.109375 5.207031 -15.007812 5.3125 -14.90625 C 5.414062 -14.863281 5.550781 -14.84375 5.71875 -14.84375 L 7.5625 -14.96875 C 8.03125 -14.925781 8.34375 -14.867188 8.5 -14.796875 C 8.65625 -14.734375 8.8125 -14.613281 8.96875 -14.4375 C 9.125 -14.257812 9.179688 -14.082031 9.140625 -13.90625 C 9.097656 -13.726562 9.03125 -13.59375 8.9375 -13.5 C 8.726562 -13.320312 8.34375 -13.113281 7.78125 -12.875 C 6.800781 -12.34375 6.273438 -12.0625 6.203125 -12.03125 L 5.625 -11.765625 C 5.382812 -11.609375 5.226562 -11.441406 5.15625 -11.265625 C 4.664062 -9.472656 4.398438 -8.472656 4.359375 -8.265625 C 4.316406 -8.066406 4.289062 -7.945312 4.28125 -7.90625 C 4.28125 -7.875 4.28125 -7.847656 4.28125 -7.828125 L 4.75 -7.875 C 5.457031 -8.101562 5.875 -8.175781 6 -8.09375 C 6.0625 -8.09375 6.148438 -8.117188 6.265625 -8.171875 C 6.859375 -8.378906 7.378906 -8.460938 7.828125 -8.421875 C 7.910156 -8.472656 8 -8.441406 8.09375 -8.328125 C 8.1875 -8.222656 8.257812 -8.085938 8.3125 -7.921875 C 8.40625 -7.523438 8.285156 -7.210938 7.953125 -6.984375 C 7.273438 -6.535156 6.472656 -6.175781 5.546875 -5.90625 C 5.242188 -5.664062 4.820312 -5.515625 4.28125 -5.453125 Z M 3.859375 -5.59375 "/></g></g></g></svg>