<svg xmlns="http://www.w3.org/2000/svg" xmlns:xlink="http://www.w3.org/1999/xlink" width="500" zoomAndPan="magnify" viewBox="0 0 375 225" height="300" preserveAspectRatio="xMidYMid meet" version="1.0"><defs><g/></defs><g fill="#000000" fill-opacity="1"><g transform="translate(83.107525, 128.045324)"><g><path d="M 10.25 -20.484375 L 11.46875 -20.09375 L 11.4375 -19.84375 L 10.1875 -19.984375 Z M 5.4375 -20.515625 L 6.125 -19.921875 L 8.4375 -20.171875 L 8.65625 -19.890625 L 8.921875 -19.859375 L 9.6875 -20.015625 C 12.507812 -19.722656 14.546875 -18.320312 15.796875 -15.8125 C 16.128906 -15.769531 16.253906 -15.335938 16.171875 -14.515625 L 15.984375 -12.75 L 15.46875 -12.8125 L 15.5 -13.0625 L 15.84375 -13.78125 L 15.625 -14.0625 L 15.890625 -14.296875 L 15.671875 -14.578125 L 15.171875 -14.609375 C 15.066406 -13.660156 14.113281 -12.671875 12.3125 -11.640625 L 12.28125 -11.390625 L 12.53125 -11.375 C 13.15625 -11.289062 14.035156 -11.609375 15.171875 -12.328125 L 15.140625 -11.828125 L 13.703125 -10.46875 C 14.628906 -10.375 15.984375 -8.878906 17.765625 -5.984375 C 17.566406 -4.148438 14.828125 -2.253906 9.546875 -0.296875 C 7.285156 0.796875 5.546875 1.28125 4.328125 1.15625 L 3.875 0.578125 L 3.625 0.5625 C 3.570312 1.0625 3.210938 1.273438 2.546875 1.203125 C 2.484375 1.660156 2.316406 1.890625 2.046875 1.890625 L 1.953125 1.890625 C 1.617188 1.859375 1.519531 1.257812 1.65625 0.09375 L 1.40625 0.078125 L 1.015625 1.28125 L 0.765625 1.265625 C 0.941406 -0.398438 0.78125 -1.253906 0.28125 -1.296875 L 0.140625 -2.34375 L 0.421875 -2.5625 L 0.1875 -2.84375 L 2.640625 -13.46875 L 2.40625 -13.75 L 2.671875 -13.71875 L 2.4375 -13.984375 L 3.109375 -17.71875 L 3.125 -17.96875 L 2.8125 -19.765625 L 3.0625 -19.75 C 4 -20.269531 4.734375 -20.53125 5.265625 -20.53125 C 5.328125 -20.53125 5.382812 -20.523438 5.4375 -20.515625 Z M 11.421875 -17.3125 L 11.390625 -17.0625 L 13.375 -16.578125 C 13.40625 -16.921875 13.171875 -17.113281 12.671875 -17.15625 Z M 6.578125 -14.8125 L 6.65625 -13.03125 L 8.9375 -13.28125 L 8.90625 -12.78125 L 12.609375 -14.390625 L 12.59375 -14.140625 L 10.671875 -12.84375 C 12.753906 -13.414062 13.875 -14.382812 14.03125 -15.75 L 13.53125 -15.8125 C 13.4375 -14.988281 13.140625 -14.597656 12.640625 -14.640625 L 12.6875 -15.15625 L 12.4375 -15.171875 L 12.78125 -15.90625 L 13 -15.625 L 13.25 -15.578125 L 13.28125 -15.828125 C 12.664062 -16.410156 11.6875 -16.769531 10.34375 -16.90625 C 8.019531 -17.175781 6.765625 -16.476562 6.578125 -14.8125 Z M 12.4375 -15.171875 L 12.421875 -14.90625 L 11.859375 -14.484375 L 11.609375 -14.5 Z M 11.28125 -9.21875 L 11.265625 -8.96875 L 13.734375 -8.4375 L 13.984375 -8.421875 L 14.015625 -8.671875 L 13.03125 -9.03125 Z M 5.625 -8.328125 L 4.875 -3.84375 L 5.09375 -3.5625 L 5.34375 -3.546875 C 6.550781 -3.398438 9.28125 -4.445312 13.53125 -6.6875 L 14.09375 -7.140625 C 14.0625 -7.816406 13.429688 -8.222656 12.203125 -8.359375 L 10.203125 -8.59375 Z M 14.625 -7.34375 L 14.03125 -6.375 L 15.109375 -7.015625 L 14.875 -7.296875 Z M 16.28125 -6.140625 C 16.21875 -5.617188 14.554688 -4.367188 11.296875 -2.390625 C 15.003906 -3.867188 16.898438 -5.007812 16.984375 -5.8125 L 16.734375 -5.828125 L 16.53125 -6.109375 Z M 16.28125 -6.140625 "/></g></g></g><g fill="#000000" fill-opacity="1"><g transform="translate(107.23894, 128.045324)"><g><path d="M 12.171875 -20.359375 L 12.421875 -20.359375 L 12.421875 -19.859375 L 12.671875 -20.109375 L 12.921875 -20.109375 C 14.097656 -19.710938 14.6875 -19.378906 14.6875 -19.109375 L 13.4375 -17.59375 L 13.9375 -17.59375 C 14.601562 -17.9375 14.9375 -18.351562 14.9375 -18.84375 L 15.703125 -18.84375 L 15.703125 -18.59375 L 15.453125 -18.34375 L 15.703125 -18.09375 L 15.703125 -17.84375 C 9.734375 -11.425781 6.816406 -6.3125 6.953125 -2.5 L 6.453125 0 L 6.703125 0.25 L 6.703125 0.5 L 5.453125 2.765625 L 3.4375 2.515625 L 3.4375 0.5 L 2.6875 -0.484375 L 2.6875 -0.984375 L 2.9375 -4.015625 L 3.1875 -3.765625 L 3.4375 -3.765625 L 3.1875 -4.015625 L 3.1875 -4.265625 L 3.4375 -4.515625 L 3.4375 -4.765625 L 3.1875 -5.015625 L 3.9375 -5.265625 L 3.6875 -4.015625 L 3.6875 -3 L 3.9375 -3 L 4.234375 -6.046875 L 3.984375 -6.796875 L 3.734375 -6.796875 L 3.734375 -6.046875 L 3.484375 -6.046875 L 3.234375 -8.0625 L 3.484375 -8.3125 L 3.484375 -8.5625 L 0.015625 -17.40625 L 0.015625 -17.90625 L 0.515625 -17.90625 L 0.015625 -19.15625 L 0.265625 -19.421875 L 0.765625 -19.421875 C 1.148438 -19.421875 1.40625 -19 1.53125 -18.15625 L 2.28125 -18.65625 L 3.03125 -18.65625 C 3.03125 -17.625 3.9375 -15.429688 5.75 -12.078125 C 6.71875 -13.921875 7.554688 -15.015625 8.265625 -15.359375 L 8.265625 -15.109375 C 6.585938 -12.972656 5.75 -11.710938 5.75 -11.328125 L 5.75 -11.078125 L 6 -11.078125 L 11.921875 -19.109375 L 11.921875 -19.359375 L 9.015625 -16.359375 L 9.015625 -16.609375 Z M 9.015625 -16.359375 L 9.015625 -16.109375 L 8.515625 -15.609375 L 8.515625 -15.859375 Z M 12.421875 -16.578125 C 8.804688 -11.953125 7 -9.28125 7 -8.5625 L 7.515625 -8.5625 C 8.960938 -11.351562 10.679688 -14.023438 12.671875 -16.578125 Z M 4.1875 1 L 4.1875 2.015625 L 4.4375 2.015625 L 4.4375 1 Z M 4.1875 1 "/></g></g></g><g fill="#000000" fill-opacity="1"><g transform="translate(128.276728, 128.045324)"><g><path d="M 15.375 -20.1875 L 16.125 -19.9375 L 16.125 -19.421875 L 15.375 -19.421875 L 15.875 -18.671875 C 15.507812 -17.835938 14.164062 -17.421875 11.84375 -17.421875 L 10.078125 -17.15625 L 9.828125 -16.40625 L 10.078125 -16.40625 C 9.578125 -15.207031 8.570312 -9.835938 7.0625 -0.296875 L 7.8125 2.96875 L 7.5625 2.96875 C 7.1875 2.96875 6.851562 2.128906 6.5625 0.453125 L 6.8125 -2.0625 L 6.8125 -2.3125 L 6.5625 -2.3125 L 6.5625 -1.8125 C 6.0625 -1.8125 5.8125 -1.640625 5.8125 -1.296875 L 5.8125 -1.046875 L 6.3125 2.96875 L 6.3125 3.234375 L 5.8125 3.234375 L 4.796875 2.46875 L 4.546875 2.71875 L 4.296875 2.71875 C 3.617188 1.269531 3.28125 0.015625 3.28125 -1.046875 L 3.546875 -0.796875 L 3.796875 -0.796875 L 3.28125 -2.5625 L 4.046875 -2.8125 L 4.046875 -4.078125 L 3.546875 -4.078125 L 3.546875 -4.328125 C 4.046875 -4.328125 4.296875 -4.492188 4.296875 -4.828125 L 4.296875 -5.078125 L 3.796875 -5.078125 C 3.796875 -6.421875 4.046875 -7.09375 4.546875 -7.09375 L 4.546875 -10.359375 C 4.816406 -10.597656 5.148438 -12.363281 5.546875 -15.65625 L 3.796875 -15.40625 L 0.265625 -15.65625 L 0.265625 -15.90625 L 1.53125 -16.15625 L 1.53125 -15.90625 L 1.78125 -16.15625 L 5.546875 -16.15625 L 5.546875 -16.90625 L 1.53125 -16.40625 L 1.28125 -16.65625 L 1.015625 -16.65625 L -0.484375 -16.40625 L -1.25 -16.90625 L -0.984375 -18.171875 L -1.25 -18.421875 C -1.25 -19.265625 -0.238281 -19.6875 1.78125 -19.6875 Z M 13.859375 -19.421875 L 13.859375 -19.171875 L 14.875 -19.171875 L 14.875 -19.421875 Z M 4.546875 -5.328125 L 4.046875 0.203125 L 4.546875 0.203125 L 4.296875 -1.046875 L 4.296875 -1.5625 L 4.796875 -2.3125 L 4.546875 -2.3125 L 4.796875 -2.5625 L 4.796875 -2.8125 L 4.546875 -3.0625 L 4.546875 -3.3125 L 5.046875 -4.328125 L 4.796875 -5.328125 Z M 4.546875 -5.328125 "/></g></g></g><g fill="#000000" fill-opacity="1"><g transform="translate(148.248768, 128.045324)"><g><path d="M 13.9375 -19.71875 L 15.15625 -18.875 C 14.789062 -17.382812 14.144531 -16.671875 13.21875 -16.734375 L 6.65625 -16.4375 L 6.625 -15.9375 L 7.859375 -15.84375 L 9.390625 -16 L 9.625 -15.71875 L 9.875 -15.703125 L 11.65625 -15.84375 L 12.15625 -15.796875 L 12.140625 -15.546875 L 6.296875 -14.9375 L 5.828125 -11.6875 L 6.09375 -11.671875 L 12.921875 -12.21875 L 13.15625 -11.953125 L 13.140625 -11.703125 L 12.625 -11.75 L 12.625 -11.484375 L 14.359375 -11.109375 L 14.34375 -10.859375 C 13.976562 -9.921875 11.570312 -9.160156 7.125 -8.578125 L 4.59375 -8.484375 L 4.828125 -8.234375 L 3.609375 -5.03125 L 3.359375 -5.03125 L 3.515625 -7.296875 L 3.265625 -7.3125 L 2.765625 -3.828125 C 7.796875 -4.492188 11.347656 -4.757812 13.421875 -4.625 L 14.640625 -4.28125 L 14.625 -3.78125 L 14.125 -3.8125 L 14.34375 -3.546875 L 14.3125 -2.78125 C 13.820312 -2.15625 12.789062 -1.890625 11.21875 -1.984375 L 11.203125 -1.734375 L 13.21875 -1.59375 L 13.1875 -1.09375 L 1.46875 0.625 L 1.21875 0.609375 C 0.40625 0.429688 0 0.171875 0 -0.171875 L 0 -0.21875 L 0.046875 -0.984375 L 0.734375 -3.703125 L 0.5 -3.96875 L 1 -3.953125 L 0.921875 -2.6875 L 1.171875 -2.671875 C 1.265625 -3.503906 1.460938 -3.90625 1.765625 -3.875 L 1.53125 -4.15625 L 1.703125 -6.65625 L 1.203125 -6.703125 L 0.859375 -5.46875 L 1.140625 -5.703125 L 1.390625 -5.6875 L 1.28125 -4.171875 L 1.03125 -4.203125 L 1.078125 -4.953125 L 0.828125 -4.953125 L 0.796875 -4.453125 L 0.546875 -4.46875 L 0.578125 -4.96875 L 1.375 -9.21875 L 1.125 -9.234375 L 1.703125 -10.453125 L 1.46875 -10.71875 L 1.484375 -10.96875 L 2.03125 -15.21875 L 2.265625 -14.953125 L 2.515625 -14.9375 L 2.546875 -15.453125 L 2.390625 -16.71875 L 2.78125 -18.96875 L 2.828125 -19.71875 L 3.078125 -19.703125 L 3.3125 -19.421875 L 3.578125 -19.671875 L 3.828125 -19.640625 L 4.078125 -19.390625 L 4.34375 -19.625 L 5.09375 -19.5625 Z M 1.328125 -8.71875 L 1.21875 -6.953125 L 1.46875 -6.9375 L 1.578125 -8.6875 Z M 9.640625 -8.390625 L 9.890625 -8.390625 L 9.859375 -8.140625 L 5.296875 -7.6875 L 5.0625 -7.96875 L 5.078125 -8.203125 L 7.359375 -8.3125 L 7.34375 -8.0625 Z M 9.640625 -8.390625 "/></g></g></g><g fill="#000000" fill-opacity="1"><g transform="translate(169.834232, 128.045324)"><g><path d="M 10.25 -20.484375 L 11.46875 -20.09375 L 11.4375 -19.84375 L 10.1875 -19.984375 Z M 5.4375 -20.515625 L 6.125 -19.921875 L 8.4375 -20.171875 L 8.65625 -19.890625 L 8.921875 -19.859375 L 9.6875 -20.015625 C 12.507812 -19.722656 14.546875 -18.320312 15.796875 -15.8125 C 16.128906 -15.769531 16.253906 -15.335938 16.171875 -14.515625 L 15.984375 -12.75 L 15.46875 -12.8125 L 15.5 -13.0625 L 15.84375 -13.78125 L 15.625 -14.0625 L 15.890625 -14.296875 L 15.671875 -14.578125 L 15.171875 -14.609375 C 15.066406 -13.660156 14.113281 -12.671875 12.3125 -11.640625 L 12.28125 -11.390625 L 12.53125 -11.375 C 13.15625 -11.289062 14.035156 -11.609375 15.171875 -12.328125 L 15.140625 -11.828125 L 13.703125 -10.46875 C 14.628906 -10.375 15.984375 -8.878906 17.765625 -5.984375 C 17.566406 -4.148438 14.828125 -2.253906 9.546875 -0.296875 C 7.285156 0.796875 5.546875 1.28125 4.328125 1.15625 L 3.875 0.578125 L 3.625 0.5625 C 3.570312 1.0625 3.210938 1.273438 2.546875 1.203125 C 2.484375 1.660156 2.316406 1.890625 2.046875 1.890625 L 1.953125 1.890625 C 1.617188 1.859375 1.519531 1.257812 1.65625 0.09375 L 1.40625 0.078125 L 1.015625 1.28125 L 0.765625 1.265625 C 0.941406 -0.398438 0.78125 -1.253906 0.28125 -1.296875 L 0.140625 -2.34375 L 0.421875 -2.5625 L 0.1875 -2.84375 L 2.640625 -13.46875 L 2.40625 -13.75 L 2.671875 -13.71875 L 2.4375 -13.984375 L 3.109375 -17.71875 L 3.125 -17.96875 L 2.8125 -19.765625 L 3.0625 -19.75 C 4 -20.269531 4.734375 -20.53125 5.265625 -20.53125 C 5.328125 -20.53125 5.382812 -20.523438 5.4375 -20.515625 Z M 11.421875 -17.3125 L 11.390625 -17.0625 L 13.375 -16.578125 C 13.40625 -16.921875 13.171875 -17.113281 12.671875 -17.15625 Z M 6.578125 -14.8125 L 6.65625 -13.03125 L 8.9375 -13.28125 L 8.90625 -12.78125 L 12.609375 -14.390625 L 12.59375 -14.140625 L 10.671875 -12.84375 C 12.753906 -13.414062 13.875 -14.382812 14.03125 -15.75 L 13.53125 -15.8125 C 13.4375 -14.988281 13.140625 -14.597656 12.640625 -14.640625 L 12.6875 -15.15625 L 12.4375 -15.171875 L 12.78125 -15.90625 L 13 -15.625 L 13.25 -15.578125 L 13.28125 -15.828125 C 12.664062 -16.410156 11.6875 -16.769531 10.34375 -16.90625 C 8.019531 -17.175781 6.765625 -16.476562 6.578125 -14.8125 Z M 12.4375 -15.171875 L 12.421875 -14.90625 L 11.859375 -14.484375 L 11.609375 -14.5 Z M 11.28125 -9.21875 L 11.265625 -8.96875 L 13.734375 -8.4375 L 13.984375 -8.421875 L 14.015625 -8.671875 L 13.03125 -9.03125 Z M 5.625 -8.328125 L 4.875 -3.84375 L 5.09375 -3.5625 L 5.34375 -3.546875 C 6.550781 -3.398438 9.28125 -4.445312 13.53125 -6.6875 L 14.09375 -7.140625 C 14.0625 -7.816406 13.429688 -8.222656 12.203125 -8.359375 L 10.203125 -8.59375 Z M 14.625 -7.34375 L 14.03125 -6.375 L 15.109375 -7.015625 L 14.875 -7.296875 Z M 16.28125 -6.140625 C 16.21875 -5.617188 14.554688 -4.367188 11.296875 -2.390625 C 15.003906 -3.867188 16.898438 -5.007812 16.984375 -5.8125 L 16.734375 -5.828125 L 16.53125 -6.109375 Z M 16.28125 -6.140625 "/></g></g></g><g fill="#000000" fill-opacity="1"><g transform="translate(193.965647, 128.045324)"><g><path d="M 5.34375 -19.859375 L 8.359375 -19.859375 C 11.890625 -19.191406 13.65625 -17.679688 13.65625 -15.328125 L 13.65625 -13.8125 L 11.140625 -10.296875 L 11.390625 -10.296875 L 13.90625 -12.5625 L 13.90625 -12.046875 C 13.039062 -10.140625 11.945312 -8.882812 10.625 -8.28125 L 9.125 -7.78125 L 9.125 -6.765625 C 9.488281 -6.765625 11.25 -4.582031 14.40625 -0.21875 C 15.082031 0.0507812 15.753906 0.722656 16.421875 1.796875 L 16.421875 2.046875 L 15.171875 1.03125 L 15.171875 1.28125 C 16.003906 2.175781 16.421875 2.847656 16.421875 3.296875 L 16.171875 3.296875 L 14.90625 4.0625 L 14.65625 4.0625 L 14.15625 3.296875 L 13.90625 3.546875 L 13.65625 3.546875 C 10.300781 0.804688 7.953125 -1.957031 6.609375 -4.75 L 5.34375 -7.265625 C 4.75 -7.265625 4.414062 -6.257812 4.34375 -4.25 C 4.445312 -2.570312 4.363281 -1.550781 4.09375 -1.1875 C 3.59375 -0.78125 3.503906 -0.375 3.828125 0.03125 L 3.828125 0.53125 L 3.078125 0.53125 C 2.742188 0.53125 2.578125 0.195312 2.578125 -0.46875 L 2.328125 -0.46875 C 2.328125 0.195312 2.007812 0.445312 1.375 0.28125 L 0.265625 -1.203125 L 0.5625 -3.5 L 0.5625 -4.5 L 2.078125 -11.546875 L 2.328125 -11.546875 L 2.328125 -10.546875 L 2.578125 -10.546875 L 3.828125 -15.828125 C 3.492188 -15.828125 3.328125 -15.492188 3.328125 -14.828125 L 3.078125 -14.828125 L 3.078125 -15.328125 L 1.5625 -15.328125 L 1.5625 -15.578125 C 1.5625 -15.910156 2.066406 -16.160156 3.078125 -16.328125 L 3.078125 -16.578125 L 2.578125 -16.578125 L 1.0625 -16.078125 L 0.8125 -16.078125 C 0.8125 -16.410156 1.148438 -16.578125 1.828125 -16.578125 L 1.828125 -16.84375 C 1.148438 -16.84375 0.8125 -17.09375 0.8125 -17.59375 Z M 5.59375 -10.796875 L 5.84375 -10.796875 C 8.476562 -12.054688 10.328125 -13.398438 11.390625 -14.828125 L 11.390625 -15.328125 C 11.390625 -15.898438 10.378906 -16.488281 8.359375 -17.09375 L 6.859375 -16.578125 Z M 10.625 -17.09375 C 10.96875 -16.332031 11.304688 -15.910156 11.640625 -15.828125 L 11.640625 -16.328125 Z M 12.140625 -15.578125 L 11.890625 -14.3125 L 12.140625 -14.3125 L 12.390625 -14.578125 L 12.390625 -15.578125 Z M 2.828125 -14.828125 L 3.078125 -14.828125 L 3.078125 -14.0625 L 2.828125 -13.0625 L 2.578125 -13.0625 L 2.578125 -13.8125 Z M 11.390625 -13.8125 L 10.125 -12.046875 L 10.375 -12.046875 L 11.640625 -13.5625 L 11.640625 -13.8125 Z M 13.90625 -13.3125 L 14.40625 -13.3125 L 14.15625 -12.5625 L 13.90625 -12.5625 Z M 2.328125 -12.5625 L 2.578125 -12.5625 L 2.578125 -11.546875 L 2.328125 -11.546875 Z M 1.828125 -9.28125 L 1.828125 -8.28125 L 2.078125 -8.28125 L 2.078125 -9.28125 Z M 9.375 -1.734375 L 9.375 -1.484375 L 10.375 -0.46875 C 10.050781 -1.226562 9.71875 -1.648438 9.375 -1.734375 Z M 10.625 0.03125 L 10.625 0.28125 L 11.640625 1.03125 L 11.640625 0.78125 Z M 10.625 0.03125 "/></g></g></g><g fill="#000000" fill-opacity="1"><g transform="translate(215.373486, 128.045324)"><g><path d="M 5.703125 -19.640625 C 5.660156 -19.128906 5.976562 -18.875 6.65625 -18.875 L 7.109375 -17.875 L 6.84375 -17.625 L 7.09375 -17.625 C 5.882812 -14.070312 5.148438 -9.957031 4.890625 -5.28125 L 4.796875 -3.78125 L 5.046875 -3.53125 L 5.03125 -3.265625 L 4.765625 -3.015625 L 5.015625 -3.015625 L 4.75 -2.765625 L 4.90625 -1 L 4.875 -0.5 C 3.976562 0.582031 3.507812 1.421875 3.46875 2.015625 L 2.453125 2.015625 L 1.25 1.515625 L 1.59375 -0.25 L 0.640625 -1.265625 L 1.09375 -5.03125 L 1.34375 -9.5625 L 1.890625 -10.328125 L 1.953125 -11.328125 L 1.71875 -11.578125 L 1.734375 -11.828125 L 2.234375 -11.828125 L 2.25 -12.078125 L 2.015625 -12.328125 L 3.03125 -17.125 L 2.78125 -17.125 L 3.046875 -17.375 L 3.125 -18.875 L 2.890625 -19.125 L 2.90625 -19.390625 Z M 2.921875 -15.109375 L 2.828125 -13.34375 L 3.078125 -13.34375 L 3.171875 -15.109375 Z M 2.53125 -12.59375 L 2.4375 -11.078125 L 2.6875 -11.078125 L 2.78125 -12.59375 Z M 2.140625 -10.328125 L 2.078125 -8.8125 L 2.328125 -8.8125 L 2.40625 -10.328125 Z M 2.109375 -0.25 L 2.03125 1 L 2.546875 0.5 L 2.609375 -0.25 Z M 2.109375 -0.25 "/></g></g></g><g fill="#000000" fill-opacity="1"><g transform="translate(228.86223, 128.045324)"><g><path d="M 3.71875 -19.796875 L 4.71875 -19.796875 L 5.484375 -19.296875 L 7.234375 -19.546875 C 10.148438 -19.546875 12.835938 -17.867188 15.296875 -14.515625 L 16.5625 -12 L 16.296875 -11.75 L 16.5625 -10.484375 L 16.5625 -9.21875 C 16.5625 -4.90625 13.035156 -1.632812 5.984375 0.59375 L 3.46875 0.84375 C 3.46875 0.414062 3.128906 0.164062 2.453125 0.09375 L 2.453125 1.09375 L 1.703125 1.09375 L 1.703125 -0.421875 L 1.453125 -0.671875 L 1.703125 -0.921875 L 1.703125 -1.171875 C 0.691406 -1.859375 0.1875 -2.445312 0.1875 -2.9375 C 0.695312 -10.53125 1.535156 -16.066406 2.703125 -19.546875 L 2.96875 -19.546875 L 3.21875 -19.296875 Z M 2.703125 -17.28125 L 1.453125 -9.984375 L 1.453125 -9.734375 L 1.703125 -9.734375 L 2.96875 -16.78125 L 2.96875 -17.28125 Z M 6.734375 -15.515625 C 6.734375 -15.179688 6.398438 -15.015625 5.734375 -15.015625 C 5.054688 -11.953125 4.550781 -8.425781 4.21875 -4.4375 C 5.195312 -4.4375 7.710938 -5.273438 11.765625 -6.953125 L 11.765625 -7.21875 L 11.265625 -7.21875 C 12.609375 -8.582031 13.28125 -10.003906 13.28125 -11.484375 L 13.28125 -12.25 C 13.28125 -14.09375 12.019531 -15.179688 9.5 -15.515625 Z M 11.765625 -15.515625 L 11.765625 -15.265625 L 12.78125 -14.765625 L 12.78125 -15.015625 L 12.03125 -15.515625 Z M 14.03125 -12 L 13.78125 -8.96875 L 14.296875 -8.96875 L 14.296875 -9.734375 L 14.546875 -10.734375 L 14.296875 -12 Z M 15.796875 -9.984375 L 14.546875 -5.953125 L 14.546875 -5.703125 L 14.796875 -5.703125 L 16.046875 -9.484375 L 16.046875 -9.984375 Z M 13.28125 -8.21875 L 12.78125 -7.21875 L 13.03125 -7.21875 L 13.53125 -8.21875 Z M 11.765625 -3.6875 C 12.160156 -3.75 12.75 -4.253906 13.53125 -5.203125 L 13.53125 -5.453125 Z M 5.984375 -2.171875 L 5.984375 -1.921875 L 6.984375 -1.921875 L 8.25 -2.421875 L 8.25 -2.6875 L 8 -2.6875 Z M 3.96875 -1.921875 L 4.21875 -1.171875 L 4.71875 -1.171875 L 5.234375 -1.671875 L 5.234375 -1.921875 L 4.96875 -1.921875 L 4.21875 -1.671875 Z M 1.203125 -0.421875 L 1.453125 -0.421875 L 1.453125 -0.15625 L 0.953125 0.34375 L 0.703125 0.34375 L 0.703125 0.09375 Z M 1.203125 -0.421875 "/></g></g></g><g fill="#000000" fill-opacity="1"><g transform="translate(252.120324, 128.045324)"><g><path d="M 10.734375 -19.3125 L 10.953125 -19.0625 L 11.203125 -19.0625 L 11.234375 -19.3125 C 14.015625 -18.601562 15.332031 -17.597656 15.1875 -16.296875 L 15.515625 -14.78125 L 15.015625 -14.78125 C 15.085938 -15.445312 14.953125 -15.78125 14.609375 -15.78125 L 14.359375 -15.78125 L 14.5 -14.53125 L 14.453125 -14.28125 L 13.953125 -14.28125 C 13.617188 -14.28125 13.476562 -14.53125 13.53125 -15.03125 L 13.25 -14.78125 L 13 -14.78125 C 12.164062 -15.445312 11.363281 -15.78125 10.59375 -15.78125 C 8.914062 -15.78125 6.960938 -14.019531 4.734375 -10.5 L 3.9375 -7.734375 C 3.6875 -5.503906 4.601562 -3.910156 6.6875 -2.953125 L 6.640625 -2.4375 L 6.125 -2.4375 L 6.09375 -2.1875 L 6.609375 -2.1875 C 7.796875 -2.1875 9.550781 -3.695312 11.875 -6.71875 L 11.90625 -6.96875 L 11.65625 -6.96875 C 10.320312 -5.363281 9.101562 -4.191406 8 -3.453125 L 7.75 -3.453125 L 10.875 -6.71875 L 9.109375 -6.71875 C 9.148438 -7.0625 8.914062 -7.234375 8.40625 -7.234375 L 8.1875 -7.484375 L 8.21875 -7.734375 C 8.25 -8.066406 9.113281 -8.316406 10.8125 -8.484375 L 10.875 -8.984375 L 10.59375 -8.734375 L 9.078125 -8.734375 L 7.765625 -10.5 L 8.046875 -10.75 L 8.0625 -11 L 10.8125 -10.75 L 17.4375 -11.5 L 17.453125 -11.765625 C 16.617188 -11.765625 16.222656 -11.929688 16.265625 -12.265625 L 16.515625 -12.265625 L 16.734375 -12.015625 L 17.015625 -12.265625 L 17.265625 -12.265625 C 19.054688 -11.742188 19.929688 -11.320312 19.890625 -11 L 19.875 -10.75 L 19.59375 -10.5 L 19.5625 -10.25 L 20.5625 -10.25 L 20.515625 -9.75 L 20.265625 -9.75 L 16.1875 -9.234375 L 16.15625 -8.984375 L 16.40625 -8.984375 L 18.703125 -9.234375 L 18.640625 -8.734375 C 16.960938 -8.734375 16.050781 -8.0625 15.90625 -6.71875 L 14.703125 -2.6875 L 14.9375 -2.4375 L 14.90625 -2.1875 L 14.515625 -0.9375 L 14.5625 1.078125 L 14.015625 1.578125 L 14.21875 1.84375 C 13.53125 2.050781 13.15625 2.46875 13.09375 3.09375 L 12.328125 3.09375 C 11.992188 3.09375 11.90625 2.335938 12.0625 0.828125 L 11.8125 0.828125 L 11.625 2.59375 L 10.875 2.59375 L 11 1.328125 L 10.9375 -0.421875 L 10.4375 -0.421875 C 9.476562 0.242188 8.515625 0.578125 7.546875 0.578125 L 6.296875 0.578125 L 5.859375 0.078125 L 5.875 -0.171875 L 6.375 -0.171875 L 6.40625 -0.421875 C 2.925781 -0.421875 1.039062 -1.597656 0.75 -3.953125 C 0.550781 -5.035156 0.453125 -6.125 0.453125 -7.21875 C 0.453125 -7.882812 0.492188 -8.554688 0.578125 -9.234375 L 0.625 -9.75 C 0.769531 -11.03125 1.367188 -12.707031 2.421875 -14.78125 L 2.6875 -14.78125 L 2.625 -14.28125 L 1.671875 -12.515625 L 1.65625 -12.265625 L 1.90625 -12.265625 C 2.070312 -13.796875 3.707031 -15.722656 6.8125 -18.046875 L 7.0625 -18.046875 L 7.09375 -18.296875 L 6.84375 -18.296875 L 6.0625 -18.046875 C 6.550781 -18.890625 8.109375 -19.3125 10.734375 -19.3125 Z M 5.53125 -17.796875 L 5.796875 -17.796875 L 3.828125 -16.03125 L 3.859375 -16.296875 Z M 9.234375 -17.296875 L 9.21875 -17.046875 L 10.984375 -17.046875 L 11 -17.296875 Z M 3.828125 -16.03125 L 3.796875 -15.78125 L 2.6875 -14.78125 L 2.703125 -15.03125 Z M 14.96875 -12.015625 L 15.984375 -12.015625 L 15.421875 -11.5 Z M 7.5 -3.453125 L 7.75 -3.453125 L 7.203125 -2.953125 L 6.9375 -2.953125 Z M 8.71875 -0.9375 L 10.859375 -1.9375 L 10.90625 -2.4375 L 10.65625 -2.4375 Z M 6.890625 -0.171875 L 6.875 0.078125 L 8.125 0.078125 L 8.140625 -0.171875 Z M 6.890625 -0.171875 "/></g></g></g><g fill="#000000" fill-opacity="1"><g transform="translate(276.680999, 128.045324)"><g><path d="M 13.9375 -19.71875 L 15.15625 -18.875 C 14.789062 -17.382812 14.144531 -16.671875 13.21875 -16.734375 L 6.65625 -16.4375 L 6.625 -15.9375 L 7.859375 -15.84375 L 9.390625 -16 L 9.625 -15.71875 L 9.875 -15.703125 L 11.65625 -15.84375 L 12.15625 -15.796875 L 12.140625 -15.546875 L 6.296875 -14.9375 L 5.828125 -11.6875 L 6.09375 -11.671875 L 12.921875 -12.21875 L 13.15625 -11.953125 L 13.140625 -11.703125 L 12.625 -11.75 L 12.625 -11.484375 L 14.359375 -11.109375 L 14.34375 -10.859375 C 13.976562 -9.921875 11.570312 -9.160156 7.125 -8.578125 L 4.59375 -8.484375 L 4.828125 -8.234375 L 3.609375 -5.03125 L 3.359375 -5.03125 L 3.515625 -7.296875 L 3.265625 -7.3125 L 2.765625 -3.828125 C 7.796875 -4.492188 11.347656 -4.757812 13.421875 -4.625 L 14.640625 -4.28125 L 14.625 -3.78125 L 14.125 -3.8125 L 14.34375 -3.546875 L 14.3125 -2.78125 C 13.820312 -2.15625 12.789062 -1.890625 11.21875 -1.984375 L 11.203125 -1.734375 L 13.21875 -1.59375 L 13.1875 -1.09375 L 1.46875 0.625 L 1.21875 0.609375 C 0.40625 0.429688 0 0.171875 0 -0.171875 L 0 -0.21875 L 0.046875 -0.984375 L 0.734375 -3.703125 L 0.5 -3.96875 L 1 -3.953125 L 0.921875 -2.6875 L 1.171875 -2.671875 C 1.265625 -3.503906 1.460938 -3.90625 1.765625 -3.875 L 1.53125 -4.15625 L 1.703125 -6.65625 L 1.203125 -6.703125 L 0.859375 -5.46875 L 1.140625 -5.703125 L 1.390625 -5.6875 L 1.28125 -4.171875 L 1.03125 -4.203125 L 1.078125 -4.953125 L 0.828125 -4.953125 L 0.796875 -4.453125 L 0.546875 -4.46875 L 0.578125 -4.96875 L 1.375 -9.21875 L 1.125 -9.234375 L 1.703125 -10.453125 L 1.46875 -10.71875 L 1.484375 -10.96875 L 2.03125 -15.21875 L 2.265625 -14.953125 L 2.515625 -14.9375 L 2.546875 -15.453125 L 2.390625 -16.71875 L 2.78125 -18.96875 L 2.828125 -19.71875 L 3.078125 -19.703125 L 3.3125 -19.421875 L 3.578125 -19.671875 L 3.828125 -19.640625 L 4.078125 -19.390625 L 4.34375 -19.625 L 5.09375 -19.5625 Z M 1.328125 -8.71875 L 1.21875 -6.953125 L 1.46875 -6.9375 L 1.578125 -8.6875 Z M 9.640625 -8.390625 L 9.890625 -8.390625 L 9.859375 -8.140625 L 5.296875 -7.6875 L 5.0625 -7.96875 L 5.078125 -8.203125 L 7.359375 -8.3125 L 7.34375 -8.0625 Z M 9.640625 -8.390625 "/></g></g></g><g fill="#000000" fill-opacity="1"><g transform="translate(40.924561, 144.638428)"><g><path d="M 0.90625 -6.640625 L 2.78125 -6.640625 C 3.664062 -6.640625 4.300781 -6.503906 4.6875 -6.234375 C 5.082031 -5.972656 5.28125 -5.5625 5.28125 -5 C 5.28125 -4.601562 5.171875 -4.273438 4.953125 -4.015625 C 4.734375 -3.765625 4.414062 -3.597656 4 -3.515625 L 4 -3.484375 C 5.007812 -3.304688 5.515625 -2.773438 5.515625 -1.890625 C 5.515625 -1.296875 5.3125 -0.832031 4.90625 -0.5 C 4.507812 -0.164062 3.953125 0 3.234375 0 L 0.90625 0 Z M 1.6875 -3.796875 L 2.953125 -3.796875 C 3.492188 -3.796875 3.882812 -3.878906 4.125 -4.046875 C 4.363281 -4.222656 4.484375 -4.515625 4.484375 -4.921875 C 4.484375 -5.285156 4.347656 -5.550781 4.078125 -5.71875 C 3.816406 -5.882812 3.394531 -5.96875 2.8125 -5.96875 L 1.6875 -5.96875 Z M 1.6875 -3.140625 L 1.6875 -0.65625 L 3.0625 -0.65625 C 3.601562 -0.65625 4.007812 -0.757812 4.28125 -0.96875 C 4.550781 -1.175781 4.6875 -1.5 4.6875 -1.9375 C 4.6875 -2.351562 4.546875 -2.65625 4.265625 -2.84375 C 3.992188 -3.039062 3.570312 -3.140625 3 -3.140625 Z M 1.6875 -3.140625 "/></g></g></g><g fill="#000000" fill-opacity="1"><g transform="translate(49.598843, 144.638428)"><g><path d="M 1.6875 -2.765625 L 1.6875 0 L 0.90625 0 L 0.90625 -6.640625 L 2.734375 -6.640625 C 3.546875 -6.640625 4.144531 -6.484375 4.53125 -6.171875 C 4.925781 -5.859375 5.125 -5.390625 5.125 -4.765625 C 5.125 -3.890625 4.675781 -3.296875 3.78125 -2.984375 L 5.59375 0 L 4.671875 0 L 3.0625 -2.765625 Z M 1.6875 -3.421875 L 2.734375 -3.421875 C 3.285156 -3.421875 3.6875 -3.53125 3.9375 -3.75 C 4.195312 -3.96875 4.328125 -4.289062 4.328125 -4.71875 C 4.328125 -5.15625 4.195312 -5.46875 3.9375 -5.65625 C 3.675781 -5.851562 3.257812 -5.953125 2.6875 -5.953125 L 1.6875 -5.953125 Z M 1.6875 -3.421875 "/></g></g></g><g fill="#000000" fill-opacity="1"><g transform="translate(57.996192, 144.638428)"><g><path d="M 0.90625 0 L 0.90625 -6.640625 L 1.6875 -6.640625 L 1.6875 0 Z M 0.90625 0 "/></g></g></g><g fill="#000000" fill-opacity="1"><g transform="translate(63.238315, 144.638428)"><g><path d="M 6.203125 -3.375 C 6.203125 -2.28125 5.90625 -1.441406 5.3125 -0.859375 C 4.71875 -0.285156 3.863281 0 2.75 0 L 0.90625 0 L 0.90625 -6.640625 L 2.953125 -6.640625 C 3.984375 -6.640625 4.78125 -6.351562 5.34375 -5.78125 C 5.914062 -5.207031 6.203125 -4.40625 6.203125 -3.375 Z M 5.390625 -3.359375 C 5.390625 -4.222656 5.171875 -4.875 4.734375 -5.3125 C 4.304688 -5.75 3.664062 -5.96875 2.8125 -5.96875 L 1.6875 -5.96875 L 1.6875 -0.671875 L 2.625 -0.671875 C 3.539062 -0.671875 4.226562 -0.894531 4.6875 -1.34375 C 5.15625 -1.800781 5.390625 -2.472656 5.390625 -3.359375 Z M 5.390625 -3.359375 "/></g></g></g><g fill="#000000" fill-opacity="1"><g transform="translate(72.66622, 144.638428)"><g><path d="M 3.828125 -3.484375 L 6.09375 -3.484375 L 6.09375 -0.25 C 5.738281 -0.132812 5.378906 -0.0507812 5.015625 0 C 4.648438 0.0625 4.226562 0.09375 3.75 0.09375 C 2.75 0.09375 1.96875 -0.203125 1.40625 -0.796875 C 0.84375 -1.398438 0.5625 -2.238281 0.5625 -3.3125 C 0.5625 -4.007812 0.695312 -4.613281 0.96875 -5.125 C 1.25 -5.644531 1.648438 -6.039062 2.171875 -6.3125 C 2.691406 -6.59375 3.304688 -6.734375 4.015625 -6.734375 C 4.722656 -6.734375 5.378906 -6.601562 5.984375 -6.34375 L 5.6875 -5.65625 C 5.09375 -5.914062 4.515625 -6.046875 3.953125 -6.046875 C 3.148438 -6.046875 2.519531 -5.800781 2.0625 -5.3125 C 1.613281 -4.832031 1.390625 -4.164062 1.390625 -3.3125 C 1.390625 -2.414062 1.609375 -1.734375 2.046875 -1.265625 C 2.484375 -0.804688 3.125 -0.578125 3.96875 -0.578125 C 4.425781 -0.578125 4.875 -0.632812 5.3125 -0.75 L 5.3125 -2.78125 L 3.828125 -2.78125 Z M 3.828125 -3.484375 "/></g></g></g><g fill="#000000" fill-opacity="1"><g transform="translate(82.085043, 144.638428)"><g><path d="M 0.90625 0 L 0.90625 -6.640625 L 1.6875 -6.640625 L 1.6875 0 Z M 0.90625 0 "/></g></g></g><g fill="#000000" fill-opacity="1"><g transform="translate(87.327165, 144.638428)"><g><path d="M 6.09375 0 L 5.21875 0 L 1.59375 -5.5625 L 1.546875 -5.5625 C 1.597656 -4.914062 1.625 -4.316406 1.625 -3.765625 L 1.625 0 L 0.90625 0 L 0.90625 -6.640625 L 1.78125 -6.640625 L 5.40625 -1.09375 L 5.4375 -1.09375 C 5.425781 -1.175781 5.410156 -1.4375 5.390625 -1.875 C 5.367188 -2.320312 5.363281 -2.640625 5.375 -2.828125 L 5.375 -6.640625 L 6.09375 -6.640625 Z M 6.09375 0 "/></g></g></g><g fill="#000000" fill-opacity="1"><g transform="translate(96.986603, 144.638428)"><g><path d="M 3.828125 -3.484375 L 6.09375 -3.484375 L 6.09375 -0.25 C 5.738281 -0.132812 5.378906 -0.0507812 5.015625 0 C 4.648438 0.0625 4.226562 0.09375 3.75 0.09375 C 2.75 0.09375 1.96875 -0.203125 1.40625 -0.796875 C 0.84375 -1.398438 0.5625 -2.238281 0.5625 -3.3125 C 0.5625 -4.007812 0.695312 -4.613281 0.96875 -5.125 C 1.25 -5.644531 1.648438 -6.039062 2.171875 -6.3125 C 2.691406 -6.59375 3.304688 -6.734375 4.015625 -6.734375 C 4.722656 -6.734375 5.378906 -6.601562 5.984375 -6.34375 L 5.6875 -5.65625 C 5.09375 -5.914062 4.515625 -6.046875 3.953125 -6.046875 C 3.148438 -6.046875 2.519531 -5.800781 2.0625 -5.3125 C 1.613281 -4.832031 1.390625 -4.164062 1.390625 -3.3125 C 1.390625 -2.414062 1.609375 -1.734375 2.046875 -1.265625 C 2.484375 -0.804688 3.125 -0.578125 3.96875 -0.578125 C 4.425781 -0.578125 4.875 -0.632812 5.3125 -0.75 L 5.3125 -2.78125 L 3.828125 -2.78125 Z M 3.828125 -3.484375 "/></g></g></g><g fill="#000000" fill-opacity="1"><g transform="translate(106.405426, 144.638428)"><g/></g></g><g fill="#000000" fill-opacity="1"><g transform="translate(111.470492, 144.638428)"><g><path d="M 2.953125 0 L 2.1875 0 L 2.1875 -5.953125 L 0.078125 -5.953125 L 0.078125 -6.640625 L 5.0625 -6.640625 L 5.0625 -5.953125 L 2.953125 -5.953125 Z M 2.953125 0 "/></g></g></g><g fill="#000000" fill-opacity="1"><g transform="translate(119.264033, 144.638428)"><g><path d="M 5.953125 0 L 5.171875 0 L 5.171875 -3.125 L 1.6875 -3.125 L 1.6875 0 L 0.90625 0 L 0.90625 -6.640625 L 1.6875 -6.640625 L 1.6875 -3.8125 L 5.171875 -3.8125 L 5.171875 -6.640625 L 5.953125 -6.640625 Z M 5.953125 0 "/></g></g></g><g fill="#000000" fill-opacity="1"><g transform="translate(128.773655, 144.638428)"><g><path d="M 4.609375 0 L 0.90625 0 L 0.90625 -6.640625 L 4.609375 -6.640625 L 4.609375 -5.953125 L 1.6875 -5.953125 L 1.6875 -3.8125 L 4.4375 -3.8125 L 4.4375 -3.125 L 1.6875 -3.125 L 1.6875 -0.6875 L 4.609375 -0.6875 Z M 4.609375 0 "/></g></g></g><g fill="#000000" fill-opacity="1"><g transform="translate(136.594436, 144.638428)"><g/></g></g><g fill="#000000" fill-opacity="1"><g transform="translate(141.659508, 144.638428)"><g><path d="M 3.828125 -3.484375 L 6.09375 -3.484375 L 6.09375 -0.25 C 5.738281 -0.132812 5.378906 -0.0507812 5.015625 0 C 4.648438 0.0625 4.226562 0.09375 3.75 0.09375 C 2.75 0.09375 1.96875 -0.203125 1.40625 -0.796875 C 0.84375 -1.398438 0.5625 -2.238281 0.5625 -3.3125 C 0.5625 -4.007812 0.695312 -4.613281 0.96875 -5.125 C 1.25 -5.644531 1.648438 -6.039062 2.171875 -6.3125 C 2.691406 -6.59375 3.304688 -6.734375 4.015625 -6.734375 C 4.722656 -6.734375 5.378906 -6.601562 5.984375 -6.34375 L 5.6875 -5.65625 C 5.09375 -5.914062 4.515625 -6.046875 3.953125 -6.046875 C 3.148438 -6.046875 2.519531 -5.800781 2.0625 -5.3125 C 1.613281 -4.832031 1.390625 -4.164062 1.390625 -3.3125 C 1.390625 -2.414062 1.609375 -1.734375 2.046875 -1.265625 C 2.484375 -0.804688 3.125 -0.578125 3.96875 -0.578125 C 4.425781 -0.578125 4.875 -0.632812 5.3125 -0.75 L 5.3125 -2.78125 L 3.828125 -2.78125 Z M 3.828125 -3.484375 "/></g></g></g><g fill="#000000" fill-opacity="1"><g transform="translate(151.078331, 144.638428)"><g><path d="M 5.078125 0 L 4.265625 -2.109375 L 1.59375 -2.109375 L 0.78125 0 L 0 0 L 2.625 -6.65625 L 3.265625 -6.65625 L 5.890625 0 Z M 4.015625 -2.8125 L 3.25 -4.859375 C 3.144531 -5.117188 3.039062 -5.4375 2.9375 -5.8125 C 2.875 -5.53125 2.78125 -5.210938 2.65625 -4.859375 L 1.875 -2.8125 Z M 4.015625 -2.8125 "/></g></g></g><g fill="#000000" fill-opacity="1"><g transform="translate(159.611875, 144.638428)"><g><path d="M 5.125 -4.703125 C 5.125 -4.023438 4.894531 -3.503906 4.4375 -3.140625 C 3.976562 -2.785156 3.320312 -2.609375 2.46875 -2.609375 L 1.6875 -2.609375 L 1.6875 0 L 0.90625 0 L 0.90625 -6.640625 L 2.640625 -6.640625 C 4.296875 -6.640625 5.125 -5.992188 5.125 -4.703125 Z M 1.6875 -3.265625 L 2.375 -3.265625 C 3.0625 -3.265625 3.554688 -3.375 3.859375 -3.59375 C 4.171875 -3.820312 4.328125 -4.179688 4.328125 -4.671875 C 4.328125 -5.109375 4.179688 -5.429688 3.890625 -5.640625 C 3.597656 -5.859375 3.148438 -5.96875 2.546875 -5.96875 L 1.6875 -5.96875 Z M 1.6875 -3.265625 "/></g></g></g><g fill="#000000" fill-opacity="1"><g transform="translate(167.859406, 144.638428)"><g/></g></g><g fill="#000000" fill-opacity="1"><g transform="translate(172.924472, 144.638428)"><g><path d="M 2.953125 0 L 2.1875 0 L 2.1875 -5.953125 L 0.078125 -5.953125 L 0.078125 -6.640625 L 5.0625 -6.640625 L 5.0625 -5.953125 L 2.953125 -5.953125 Z M 2.953125 0 "/></g></g></g><g fill="#000000" fill-opacity="1"><g transform="translate(180.718014, 144.638428)"><g><path d="M 6.671875 -3.328125 C 6.671875 -2.265625 6.398438 -1.425781 5.859375 -0.8125 C 5.328125 -0.207031 4.582031 0.09375 3.625 0.09375 C 2.644531 0.09375 1.890625 -0.203125 1.359375 -0.796875 C 0.828125 -1.398438 0.5625 -2.25 0.5625 -3.34375 C 0.5625 -4.414062 0.828125 -5.25 1.359375 -5.84375 C 1.898438 -6.4375 2.660156 -6.734375 3.640625 -6.734375 C 4.585938 -6.734375 5.328125 -6.429688 5.859375 -5.828125 C 6.398438 -5.222656 6.671875 -4.390625 6.671875 -3.328125 Z M 1.390625 -3.328125 C 1.390625 -2.429688 1.578125 -1.75 1.953125 -1.28125 C 2.335938 -0.8125 2.894531 -0.578125 3.625 -0.578125 C 4.363281 -0.578125 4.921875 -0.804688 5.296875 -1.265625 C 5.671875 -1.734375 5.859375 -2.421875 5.859375 -3.328125 C 5.859375 -4.222656 5.671875 -4.898438 5.296875 -5.359375 C 4.921875 -5.816406 4.367188 -6.046875 3.640625 -6.046875 C 2.898438 -6.046875 2.335938 -5.8125 1.953125 -5.34375 C 1.578125 -4.882812 1.390625 -4.210938 1.390625 -3.328125 Z M 1.390625 -3.328125 "/></g></g></g><g fill="#000000" fill-opacity="1"><g transform="translate(190.608986, 144.638428)"><g/></g></g><g fill="#000000" fill-opacity="1"><g transform="translate(195.674052, 144.638428)"><g><path d="M 3.828125 -3.484375 L 6.09375 -3.484375 L 6.09375 -0.25 C 5.738281 -0.132812 5.378906 -0.0507812 5.015625 0 C 4.648438 0.0625 4.226562 0.09375 3.75 0.09375 C 2.75 0.09375 1.96875 -0.203125 1.40625 -0.796875 C 0.84375 -1.398438 0.5625 -2.238281 0.5625 -3.3125 C 0.5625 -4.007812 0.695312 -4.613281 0.96875 -5.125 C 1.25 -5.644531 1.648438 -6.039062 2.171875 -6.3125 C 2.691406 -6.59375 3.304688 -6.734375 4.015625 -6.734375 C 4.722656 -6.734375 5.378906 -6.601562 5.984375 -6.34375 L 5.6875 -5.65625 C 5.09375 -5.914062 4.515625 -6.046875 3.953125 -6.046875 C 3.148438 -6.046875 2.519531 -5.800781 2.0625 -5.3125 C 1.613281 -4.832031 1.390625 -4.164062 1.390625 -3.3125 C 1.390625 -2.414062 1.609375 -1.734375 2.046875 -1.265625 C 2.484375 -0.804688 3.125 -0.578125 3.96875 -0.578125 C 4.425781 -0.578125 4.875 -0.632812 5.3125 -0.75 L 5.3125 -2.78125 L 3.828125 -2.78125 Z M 3.828125 -3.484375 "/></g></g></g><g fill="#000000" fill-opacity="1"><g transform="translate(205.092875, 144.638428)"><g><path d="M 0.90625 0 L 0.90625 -6.640625 L 1.6875 -6.640625 L 1.6875 -0.703125 L 4.609375 -0.703125 L 4.609375 0 Z M 0.90625 0 "/></g></g></g><g fill="#000000" fill-opacity="1"><g transform="translate(212.568624, 144.638428)"><g><path d="M 6.671875 -3.328125 C 6.671875 -2.265625 6.398438 -1.425781 5.859375 -0.8125 C 5.328125 -0.207031 4.582031 0.09375 3.625 0.09375 C 2.644531 0.09375 1.890625 -0.203125 1.359375 -0.796875 C 0.828125 -1.398438 0.5625 -2.25 0.5625 -3.34375 C 0.5625 -4.414062 0.828125 -5.25 1.359375 -5.84375 C 1.898438 -6.4375 2.660156 -6.734375 3.640625 -6.734375 C 4.585938 -6.734375 5.328125 -6.429688 5.859375 -5.828125 C 6.398438 -5.222656 6.671875 -4.390625 6.671875 -3.328125 Z M 1.390625 -3.328125 C 1.390625 -2.429688 1.578125 -1.75 1.953125 -1.28125 C 2.335938 -0.8125 2.894531 -0.578125 3.625 -0.578125 C 4.363281 -0.578125 4.921875 -0.804688 5.296875 -1.265625 C 5.671875 -1.734375 5.859375 -2.421875 5.859375 -3.328125 C 5.859375 -4.222656 5.671875 -4.898438 5.296875 -5.359375 C 4.921875 -5.816406 4.367188 -6.046875 3.640625 -6.046875 C 2.898438 -6.046875 2.335938 -5.8125 1.953125 -5.34375 C 1.578125 -4.882812 1.390625 -4.210938 1.390625 -3.328125 Z M 1.390625 -3.328125 "/></g></g></g><g fill="#000000" fill-opacity="1"><g transform="translate(222.459596, 144.638428)"><g><path d="M 0.90625 -6.640625 L 2.78125 -6.640625 C 3.664062 -6.640625 4.300781 -6.503906 4.6875 -6.234375 C 5.082031 -5.972656 5.28125 -5.5625 5.28125 -5 C 5.28125 -4.601562 5.171875 -4.273438 4.953125 -4.015625 C 4.734375 -3.765625 4.414062 -3.597656 4 -3.515625 L 4 -3.484375 C 5.007812 -3.304688 5.515625 -2.773438 5.515625 -1.890625 C 5.515625 -1.296875 5.3125 -0.832031 4.90625 -0.5 C 4.507812 -0.164062 3.953125 0 3.234375 0 L 0.90625 0 Z M 1.6875 -3.796875 L 2.953125 -3.796875 C 3.492188 -3.796875 3.882812 -3.878906 4.125 -4.046875 C 4.363281 -4.222656 4.484375 -4.515625 4.484375 -4.921875 C 4.484375 -5.285156 4.347656 -5.550781 4.078125 -5.71875 C 3.816406 -5.882812 3.394531 -5.96875 2.8125 -5.96875 L 1.6875 -5.96875 Z M 1.6875 -3.140625 L 1.6875 -0.65625 L 3.0625 -0.65625 C 3.601562 -0.65625 4.007812 -0.757812 4.28125 -0.96875 C 4.550781 -1.175781 4.6875 -1.5 4.6875 -1.9375 C 4.6875 -2.351562 4.546875 -2.65625 4.265625 -2.84375 C 3.992188 -3.039062 3.570312 -3.140625 3 -3.140625 Z M 1.6875 -3.140625 "/></g></g></g><g fill="#000000" fill-opacity="1"><g transform="translate(231.133877, 144.638428)"><g><path d="M 5.078125 0 L 4.265625 -2.109375 L 1.59375 -2.109375 L 0.78125 0 L 0 0 L 2.625 -6.65625 L 3.265625 -6.65625 L 5.890625 0 Z M 4.015625 -2.8125 L 3.25 -4.859375 C 3.144531 -5.117188 3.039062 -5.4375 2.9375 -5.8125 C 2.875 -5.53125 2.78125 -5.210938 2.65625 -4.859375 L 1.875 -2.8125 Z M 4.015625 -2.8125 "/></g></g></g><g fill="#000000" fill-opacity="1"><g transform="translate(239.667421, 144.638428)"><g><path d="M 0.90625 0 L 0.90625 -6.640625 L 1.6875 -6.640625 L 1.6875 -0.703125 L 4.609375 -0.703125 L 4.609375 0 Z M 0.90625 0 "/></g></g></g><g fill="#000000" fill-opacity="1"><g transform="translate(247.143182, 144.638428)"><g/></g></g><g fill="#000000" fill-opacity="1"><g transform="translate(252.20826, 144.638428)"><g><path d="M 4.65625 -1.765625 C 4.65625 -1.179688 4.441406 -0.722656 4.015625 -0.390625 C 3.597656 -0.0664062 3.023438 0.09375 2.296875 0.09375 C 1.503906 0.09375 0.898438 -0.0078125 0.484375 -0.21875 L 0.484375 -0.953125 C 0.753906 -0.835938 1.050781 -0.742188 1.375 -0.671875 C 1.695312 -0.609375 2.015625 -0.578125 2.328125 -0.578125 C 2.835938 -0.578125 3.222656 -0.675781 3.484375 -0.875 C 3.742188 -1.070312 3.875 -1.34375 3.875 -1.6875 C 3.875 -1.914062 3.828125 -2.101562 3.734375 -2.25 C 3.640625 -2.40625 3.484375 -2.539062 3.265625 -2.65625 C 3.054688 -2.78125 2.726562 -2.925781 2.28125 -3.09375 C 1.664062 -3.3125 1.222656 -3.570312 0.953125 -3.875 C 0.691406 -4.175781 0.5625 -4.570312 0.5625 -5.0625 C 0.5625 -5.570312 0.753906 -5.976562 1.140625 -6.28125 C 1.523438 -6.582031 2.035156 -6.734375 2.671875 -6.734375 C 3.328125 -6.734375 3.929688 -6.613281 4.484375 -6.375 L 4.25 -5.703125 C 3.695312 -5.929688 3.164062 -6.046875 2.65625 -6.046875 C 2.238281 -6.046875 1.914062 -5.957031 1.6875 -5.78125 C 1.457031 -5.601562 1.34375 -5.359375 1.34375 -5.046875 C 1.34375 -4.816406 1.382812 -4.628906 1.46875 -4.484375 C 1.5625 -4.335938 1.707031 -4.203125 1.90625 -4.078125 C 2.101562 -3.953125 2.410156 -3.816406 2.828125 -3.671875 C 3.523438 -3.421875 4.003906 -3.15625 4.265625 -2.875 C 4.523438 -2.59375 4.65625 -2.222656 4.65625 -1.765625 Z M 4.65625 -1.765625 "/></g></g></g><g fill="#000000" fill-opacity="1"><g transform="translate(259.960955, 144.638428)"><g><path d="M 6.671875 -3.328125 C 6.671875 -2.265625 6.398438 -1.425781 5.859375 -0.8125 C 5.328125 -0.207031 4.582031 0.09375 3.625 0.09375 C 2.644531 0.09375 1.890625 -0.203125 1.359375 -0.796875 C 0.828125 -1.398438 0.5625 -2.25 0.5625 -3.34375 C 0.5625 -4.414062 0.828125 -5.25 1.359375 -5.84375 C 1.898438 -6.4375 2.660156 -6.734375 3.640625 -6.734375 C 4.585938 -6.734375 5.328125 -6.429688 5.859375 -5.828125 C 6.398438 -5.222656 6.671875 -4.390625 6.671875 -3.328125 Z M 1.390625 -3.328125 C 1.390625 -2.429688 1.578125 -1.75 1.953125 -1.28125 C 2.335938 -0.8125 2.894531 -0.578125 3.625 -0.578125 C 4.363281 -0.578125 4.921875 -0.804688 5.296875 -1.265625 C 5.671875 -1.734375 5.859375 -2.421875 5.859375 -3.328125 C 5.859375 -4.222656 5.671875 -4.898438 5.296875 -5.359375 C 4.921875 -5.816406 4.367188 -6.046875 3.640625 -6.046875 C 2.898438 -6.046875 2.335938 -5.8125 1.953125 -5.34375 C 1.578125 -4.882812 1.390625 -4.210938 1.390625 -3.328125 Z M 1.390625 -3.328125 "/></g></g></g><g fill="#000000" fill-opacity="1"><g transform="translate(269.851939, 144.638428)"><g><path d="M 0.90625 0 L 0.90625 -6.640625 L 1.6875 -6.640625 L 1.6875 -0.703125 L 4.609375 -0.703125 L 4.609375 0 Z M 0.90625 0 "/></g></g></g><g fill="#000000" fill-opacity="1"><g transform="translate(277.3277, 144.638428)"><g><path d="M 5.921875 -6.640625 L 5.921875 -2.34375 C 5.921875 -1.582031 5.691406 -0.984375 5.234375 -0.546875 C 4.773438 -0.117188 4.148438 0.09375 3.359375 0.09375 C 2.554688 0.09375 1.9375 -0.125 1.5 -0.5625 C 1.0625 -1 0.84375 -1.597656 0.84375 -2.359375 L 0.84375 -6.640625 L 1.609375 -6.640625 L 1.609375 -2.3125 C 1.609375 -1.75 1.757812 -1.316406 2.0625 -1.015625 C 2.375 -0.722656 2.820312 -0.578125 3.40625 -0.578125 C 3.96875 -0.578125 4.398438 -0.726562 4.703125 -1.03125 C 5.003906 -1.332031 5.15625 -1.757812 5.15625 -2.3125 L 5.15625 -6.640625 Z M 5.921875 -6.640625 "/></g></g></g><g fill="#000000" fill-opacity="1"><g transform="translate(286.746535, 144.638428)"><g><path d="M 2.953125 0 L 2.1875 0 L 2.1875 -5.953125 L 0.078125 -5.953125 L 0.078125 -6.640625 L 5.0625 -6.640625 L 5.0625 -5.953125 L 2.953125 -5.953125 Z M 2.953125 0 "/></g></g></g><g fill="#000000" fill-opacity="1"><g transform="translate(294.540088, 144.638428)"><g><path d="M 0.90625 0 L 0.90625 -6.640625 L 1.6875 -6.640625 L 1.6875 0 Z M 0.90625 0 "/></g></g></g><g fill="#000000" fill-opacity="1"><g transform="translate(299.782222, 144.638428)"><g><path d="M 6.671875 -3.328125 C 6.671875 -2.265625 6.398438 -1.425781 5.859375 -0.8125 C 5.328125 -0.207031 4.582031 0.09375 3.625 0.09375 C 2.644531 0.09375 1.890625 -0.203125 1.359375 -0.796875 C 0.828125 -1.398438 0.5625 -2.25 0.5625 -3.34375 C 0.5625 -4.414062 0.828125 -5.25 1.359375 -5.84375 C 1.898438 -6.4375 2.660156 -6.734375 3.640625 -6.734375 C 4.585938 -6.734375 5.328125 -6.429688 5.859375 -5.828125 C 6.398438 -5.222656 6.671875 -4.390625 6.671875 -3.328125 Z M 1.390625 -3.328125 C 1.390625 -2.429688 1.578125 -1.75 1.953125 -1.28125 C 2.335938 -0.8125 2.894531 -0.578125 3.625 -0.578125 C 4.363281 -0.578125 4.921875 -0.804688 5.296875 -1.265625 C 5.671875 -1.734375 5.859375 -2.421875 5.859375 -3.328125 C 5.859375 -4.222656 5.671875 -4.898438 5.296875 -5.359375 C 4.921875 -5.816406 4.367188 -6.046875 3.640625 -6.046875 C 2.898438 -6.046875 2.335938 -5.8125 1.953125 -5.34375 C 1.578125 -4.882812 1.390625 -4.210938 1.390625 -3.328125 Z M 1.390625 -3.328125 "/></g></g></g><g fill="#000000" fill-opacity="1"><g transform="translate(309.673206, 144.638428)"><g><path d="M 6.09375 0 L 5.21875 0 L 1.59375 -5.5625 L 1.546875 -5.5625 C 1.597656 -4.914062 1.625 -4.316406 1.625 -3.765625 L 1.625 0 L 0.90625 0 L 0.90625 -6.640625 L 1.78125 -6.640625 L 5.40625 -1.09375 L 5.4375 -1.09375 C 5.425781 -1.175781 5.410156 -1.4375 5.390625 -1.875 C 5.367188 -2.320312 5.363281 -2.640625 5.375 -2.828125 L 5.375 -6.640625 L 6.09375 -6.640625 Z M 6.09375 0 "/></g></g></g><g fill="#000000" fill-opacity="1"><g transform="translate(319.332655, 144.638428)"><g><path d="M 4.65625 -1.765625 C 4.65625 -1.179688 4.441406 -0.722656 4.015625 -0.390625 C 3.597656 -0.0664062 3.023438 0.09375 2.296875 0.09375 C 1.503906 0.09375 0.898438 -0.0078125 0.484375 -0.21875 L 0.484375 -0.953125 C 0.753906 -0.835938 1.050781 -0.742188 1.375 -0.671875 C 1.695312 -0.609375 2.015625 -0.578125 2.328125 -0.578125 C 2.835938 -0.578125 3.222656 -0.675781 3.484375 -0.875 C 3.742188 -1.070312 3.875 -1.34375 3.875 -1.6875 C 3.875 -1.914062 3.828125 -2.101562 3.734375 -2.25 C 3.640625 -2.40625 3.484375 -2.539062 3.265625 -2.65625 C 3.054688 -2.78125 2.726562 -2.925781 2.28125 -3.09375 C 1.664062 -3.3125 1.222656 -3.570312 0.953125 -3.875 C 0.691406 -4.175781 0.5625 -4.570312 0.5625 -5.0625 C 0.5625 -5.570312 0.753906 -5.976562 1.140625 -6.28125 C 1.523438 -6.582031 2.035156 -6.734375 2.671875 -6.734375 C 3.328125 -6.734375 3.929688 -6.613281 4.484375 -6.375 L 4.25 -5.703125 C 3.695312 -5.929688 3.164062 -6.046875 2.65625 -6.046875 C 2.238281 -6.046875 1.914062 -5.957031 1.6875 -5.78125 C 1.457031 -5.601562 1.34375 -5.359375 1.34375 -5.046875 C 1.34375 -4.816406 1.382812 -4.628906 1.46875 -4.484375 C 1.5625 -4.335938 1.707031 -4.203125 1.90625 -4.078125 C 2.101562 -3.953125 2.410156 -3.816406 2.828125 -3.671875 C 3.523438 -3.421875 4.003906 -3.15625 4.265625 -2.875 C 4.523438 -2.59375 4.65625 -2.222656 4.65625 -1.765625 Z M 4.65625 -1.765625 "/></g></g></g></svg>